<?xml version="1.0" encoding="utf-8"?>
<!-- Generator: Adobe Illustrator 27.5.0, SVG Export Plug-In . SVG Version: 6.00 Build 0)  -->
<svg version="1.1" xmlns="http://www.w3.org/2000/svg" xmlns:xlink="http://www.w3.org/1999/xlink" x="0px" y="0px"
	 viewBox="0 0 500 500" style="enable-background:new 0 0 500 500;" xml:space="preserve">
<g id="Floor">
	
		<line style="fill:none;stroke:#263238;stroke-width:2.5;stroke-linecap:round;stroke-linejoin:round;stroke-miterlimit:10;" x1="38.01" y1="478.607" x2="461.99" y2="478.607"/>
</g>
<g id="Clipboard">
	<g>
		
			<path style="fill:#EC644E;stroke:#263238;stroke-width:2.5;stroke-linecap:round;stroke-linejoin:round;stroke-miterlimit:10;" d="
			M349.044,400.205h-253c-4.016,0-7.271-3.255-7.271-7.271V73.786c0-4.016,3.255-7.271,7.271-7.271h253
			c4.016,0,7.271,3.255,7.271,7.271v319.148C356.315,396.95,353.06,400.205,349.044,400.205z"/>
		<g>
			
				<rect x="103.011" y="88.698" transform="matrix(0.9999 0.0134 -0.0134 0.9999 3.2142 -2.906)" style="fill:#FFFFFF;stroke:#263238;stroke-width:2.5;stroke-linecap:round;stroke-linejoin:round;stroke-miterlimit:10;" width="230.856" height="299.35"/>
			
				<rect x="107.116" y="83.685" style="fill:#FFFFFF;stroke:#263238;stroke-width:2.5;stroke-linecap:round;stroke-linejoin:round;stroke-miterlimit:10;" width="230.856" height="299.35"/>
			<g>
				
					<rect x="134.669" y="139.634" style="fill:none;stroke:#263238;stroke-width:2.5;stroke-linecap:round;stroke-linejoin:round;stroke-miterlimit:10;" width="27.188" height="27.188"/>
				
					<line style="fill:none;stroke:#263238;stroke-width:2.5;stroke-linecap:round;stroke-linejoin:round;stroke-miterlimit:10;" x1="180.183" y1="143.841" x2="310.418" y2="143.841"/>
				
					<line style="fill:none;stroke:#263238;stroke-width:2.5;stroke-linecap:round;stroke-linejoin:round;stroke-miterlimit:10;" x1="180.183" y1="153.227" x2="310.418" y2="153.227"/>
				
					<line style="fill:none;stroke:#263238;stroke-width:2.5;stroke-linecap:round;stroke-linejoin:round;stroke-miterlimit:10;" x1="180.183" y1="162.614" x2="263.904" y2="162.614"/>
				<path style="fill:#EC644E;" d="M148.604,161.082l-7.801-7.801c-0.394-0.394-0.394-1.033,0-1.427l2.364-2.364
					c0.394-0.394,1.033-0.394,1.427,0l4.343,4.343c0.21,0.21,0.551,0.21,0.761,0l13.236-13.236c0.394-0.394,1.033-0.394,1.427,0
					l2.363,2.364c0.394,0.394,0.394,1.033,0,1.427l-16.694,16.693C149.637,161.476,148.998,161.476,148.604,161.082z"/>
			</g>
			<g>
				
					<rect x="134.669" y="184.772" style="fill:none;stroke:#263238;stroke-width:2.5;stroke-linecap:round;stroke-linejoin:round;stroke-miterlimit:10;" width="27.188" height="27.188"/>
				
					<line style="fill:none;stroke:#263238;stroke-width:2.5;stroke-linecap:round;stroke-linejoin:round;stroke-miterlimit:10;" x1="180.183" y1="188.98" x2="310.418" y2="188.98"/>
				
					<line style="fill:none;stroke:#263238;stroke-width:2.5;stroke-linecap:round;stroke-linejoin:round;stroke-miterlimit:10;" x1="180.183" y1="198.366" x2="310.418" y2="198.366"/>
				
					<line style="fill:none;stroke:#263238;stroke-width:2.5;stroke-linecap:round;stroke-linejoin:round;stroke-miterlimit:10;" x1="180.183" y1="207.752" x2="263.904" y2="207.752"/>
				<path style="fill:#EC644E;" d="M148.604,206.22l-7.801-7.8c-0.394-0.394-0.394-1.033,0-1.427l2.364-2.364
					c0.394-0.394,1.033-0.394,1.427,0l4.343,4.343c0.21,0.21,0.551,0.21,0.761,0l13.236-13.235c0.394-0.394,1.033-0.394,1.427,0
					l2.363,2.364c0.394,0.394,0.394,1.033,0,1.427l-16.694,16.693C149.637,206.615,148.998,206.615,148.604,206.22z"/>
			</g>
			<g>
				
					<rect x="134.669" y="229.91" style="fill:none;stroke:#263238;stroke-width:2.5;stroke-linecap:round;stroke-linejoin:round;stroke-miterlimit:10;" width="27.188" height="27.188"/>
				
					<line style="fill:none;stroke:#263238;stroke-width:2.5;stroke-linecap:round;stroke-linejoin:round;stroke-miterlimit:10;" x1="180.183" y1="234.118" x2="310.418" y2="234.118"/>
				
					<line style="fill:none;stroke:#263238;stroke-width:2.5;stroke-linecap:round;stroke-linejoin:round;stroke-miterlimit:10;" x1="180.183" y1="243.504" x2="310.418" y2="243.504"/>
				
					<line style="fill:none;stroke:#263238;stroke-width:2.5;stroke-linecap:round;stroke-linejoin:round;stroke-miterlimit:10;" x1="180.183" y1="252.89" x2="263.904" y2="252.89"/>
			</g>
			<g>
				
					<rect x="134.669" y="275.049" style="fill:none;stroke:#263238;stroke-width:2.5;stroke-linecap:round;stroke-linejoin:round;stroke-miterlimit:10;" width="27.188" height="27.188"/>
				
					<line style="fill:none;stroke:#263238;stroke-width:2.5;stroke-linecap:round;stroke-linejoin:round;stroke-miterlimit:10;" x1="180.183" y1="279.256" x2="310.418" y2="279.256"/>
				
					<line style="fill:none;stroke:#263238;stroke-width:2.5;stroke-linecap:round;stroke-linejoin:round;stroke-miterlimit:10;" x1="180.183" y1="288.642" x2="310.418" y2="288.642"/>
				
					<line style="fill:none;stroke:#263238;stroke-width:2.5;stroke-linecap:round;stroke-linejoin:round;stroke-miterlimit:10;" x1="180.183" y1="298.029" x2="263.904" y2="298.029"/>
			</g>
			<g>
				
					<rect x="134.669" y="320.187" style="fill:none;stroke:#263238;stroke-width:2.5;stroke-linecap:round;stroke-linejoin:round;stroke-miterlimit:10;" width="27.188" height="27.188"/>
				
					<line style="fill:none;stroke:#263238;stroke-width:2.5;stroke-linecap:round;stroke-linejoin:round;stroke-miterlimit:10;" x1="180.183" y1="324.395" x2="310.418" y2="324.395"/>
				
					<line style="fill:none;stroke:#263238;stroke-width:2.5;stroke-linecap:round;stroke-linejoin:round;stroke-miterlimit:10;" x1="180.183" y1="333.781" x2="310.418" y2="333.781"/>
				
					<line style="fill:none;stroke:#263238;stroke-width:2.5;stroke-linecap:round;stroke-linejoin:round;stroke-miterlimit:10;" x1="180.183" y1="343.167" x2="263.904" y2="343.167"/>
			</g>
		</g>
		
			<path style="fill:#9ABAE3;stroke:#263238;stroke-width:2.5;stroke-linecap:round;stroke-linejoin:round;stroke-miterlimit:10;" d="
			M242.224,57.319c1.166-2.728,1.764-5.746,1.675-8.923c-0.304-10.82-8.893-19.86-19.686-20.68
			c-12.549-0.954-23.033,8.952-23.033,21.3c0,2.949,0.594,5.752,1.684,8.302h-31.718c-8.161,0-14.777,6.616-14.777,14.777v24.486
			h132.349V72.096c0-8.161-6.616-14.777-14.777-14.777H242.224z M227.78,57.319c-1.518,0.964-3.309,1.518-5.236,1.518
			c-1.927,0-3.718-0.555-5.236-1.518c-2.754-1.742-4.574-4.808-4.574-8.302c0-5.421,4.39-9.811,9.811-9.811s9.811,4.39,9.811,9.811
			C232.355,52.511,230.535,55.577,227.78,57.319z"/>
	</g>
</g>
<g id="Plant">
	<g>
		<g>
			<g>
				<g>
					<path style="fill:#9ABAE3;" d="M82.854,391.775c1.179,1.137,2.108,2.567,2.653,4.179c1.64,4.962-0.774,9.596-4.612,10.696
						c-3.872,1.096-8.125-1.549-10.283-6.169c-0.689-1.515-1.041-3.067-1.028-4.536c-3.435-1.22-6.78-3.754-9.134-7.313
						c-2.358-3.584-3.108-7.491-1.924-10.735c-1.628-0.847-3.114-2.01-4.299-3.438c-2.508-3.012-2.965-6.506-1.152-9.075
						c-1.021-0.502-1.969-1.188-2.766-2.025c-2.397-2.493-2.433-5.495,0.214-6.686c2.625-1.185,6.82,0.058,9.076,2.74
						c0.757,0.889,1.219,1.813,1.385,2.693c4.128,0.135,8.408,2.308,10.607,5.663c1.047,1.581,1.525,3.216,1.513,4.732
						c4.307,1.315,8.138,4.428,9.992,8.45C84.95,384.946,84.55,388.884,82.854,391.775z"/>
					
						<path style="fill:none;stroke:#263238;stroke-width:2.5;stroke-linecap:round;stroke-linejoin:round;stroke-miterlimit:10;" d="
						M82.854,391.775c1.179,1.137,2.108,2.567,2.653,4.179c1.64,4.962-0.774,9.596-4.612,10.696
						c-3.872,1.096-8.125-1.549-10.283-6.169c-0.689-1.515-1.041-3.067-1.028-4.536c-3.435-1.22-6.78-3.754-9.134-7.313
						c-2.358-3.584-3.108-7.491-1.924-10.735c-1.628-0.847-3.114-2.01-4.299-3.438c-2.508-3.012-2.965-6.506-1.152-9.075
						c-1.021-0.502-1.969-1.188-2.766-2.025c-2.397-2.493-2.433-5.495,0.214-6.686c2.625-1.185,6.82,0.058,9.076,2.74
						c0.757,0.889,1.219,1.813,1.385,2.693c4.128,0.135,8.408,2.308,10.607,5.663c1.047,1.581,1.525,3.216,1.513,4.732
						c4.307,1.315,8.138,4.428,9.992,8.45C84.95,384.946,84.55,388.884,82.854,391.775z"/>
				</g>
				<path style="fill:none;stroke:#263238;stroke-width:2.5;stroke-linecap:round;stroke-linejoin:round;stroke-miterlimit:10;" d="
					M58.882,365.725c0,0,31.409,37.414,30.991,68.793"/>
			</g>
			<g>
				
					<path style="fill:#9ABAE3;stroke:#263238;stroke-width:2.5;stroke-linecap:round;stroke-linejoin:round;stroke-miterlimit:10;" d="
					M93.393,356.99c1.042,1.584,1.79,3.49,2.116,5.591c0.996,6.434-2.363,12.291-7.491,13.085
					c-5.143,0.796-10.116-3.771-11.112-10.205c-0.325-2.102-0.188-4.145,0.341-5.972c-3.501-2.527-6.173-6.868-6.98-12.081
					c-0.813-5.255,0.447-10.235,3.081-13.711c-1.125-1.615-1.915-3.586-2.251-5.76c-0.712-4.602,0.809-8.909,3.599-11.275
					c-0.59-0.985-1.008-2.171-1.21-3.477c-0.607-3.92,1.02-7.444,3.645-7.85c2.609-0.404,5.225,2.463,5.832,6.383
					c0.202,1.307,0.162,2.564-0.102,3.681c3.375,1.412,6.127,5.058,6.84,9.659c0.336,2.173,0.18,4.291-0.389,6.168
					c3.547,2.519,6.254,6.885,7.067,12.14C97.185,348.579,95.951,353.526,93.393,356.99z"/>
				<path style="fill:none;stroke:#263238;stroke-width:2.5;stroke-linecap:round;stroke-linejoin:round;stroke-miterlimit:10;" d="
					M81.427,330.293c0,0,8.761,33.771,8.447,104.225"/>
			</g>
			<g>
				<g>
					<path style="fill:#9ABAE3;" d="M116.99,376.644c-0.127,1.641-0.627,3.355-1.49,5.005c-2.668,5.026-7.608,7.672-11.844,6.126
						c-4.225-1.553-6.316-6.998-3.855-12.426c0.806-1.762,2.001-3.283,3.429-4.447c-1.434-3.427-1.223-7.926,1.38-12.26
						c2.61-4.366,7.114-7.509,11.761-8.633c0.239-1.719,1.028-3.526,2.39-5.225c2.874-3.607,7.636-5.718,11.824-5.62
						c0.34-0.977,0.991-1.984,1.935-2.935c2.824-2.867,7.305-4.022,9.71-2.589c2.398,1.424,1.777,4.746-1.092,7.442
						c-0.957,0.903-2.036,1.633-3.159,2.152c1.385,2.937,0.387,6.815-2.593,10.095c-1.41,1.553-3.089,2.797-4.863,3.68
						c0.778,3.679-0.407,8.026-3.207,11.937C124.525,372.826,120.779,375.494,116.99,376.644z"/>
					
						<path style="fill:none;stroke:#263238;stroke-width:2.5;stroke-linecap:round;stroke-linejoin:round;stroke-miterlimit:10;" d="
						M116.99,376.644c-0.127,1.641-0.627,3.355-1.49,5.005c-2.668,5.026-7.608,7.672-11.844,6.126
						c-4.225-1.553-6.316-6.998-3.855-12.426c0.806-1.762,2.001-3.283,3.429-4.447c-1.434-3.427-1.223-7.926,1.38-12.26
						c2.61-4.366,7.114-7.509,11.761-8.633c0.239-1.719,1.028-3.526,2.39-5.225c2.874-3.607,7.636-5.718,11.824-5.62
						c0.34-0.977,0.991-1.984,1.935-2.935c2.824-2.867,7.305-4.022,9.71-2.589c2.398,1.424,1.777,4.746-1.092,7.442
						c-0.957,0.903-2.036,1.633-3.159,2.152c1.385,2.937,0.387,6.815-2.593,10.095c-1.41,1.553-3.089,2.797-4.863,3.68
						c0.778,3.679-0.407,8.026-3.207,11.937C124.525,372.826,120.779,375.494,116.99,376.644z"/>
				</g>
				<path style="fill:none;stroke:#263238;stroke-width:2.5;stroke-linecap:round;stroke-linejoin:round;stroke-miterlimit:10;" d="
					M134.782,340.527c0,0-40.018,31.135-44.845,93.997"/>
			</g>
		</g>
		
			<rect x="64.157" y="413.344" style="fill:#FFFFFF;stroke:#263238;stroke-width:2.5;stroke-linecap:round;stroke-linejoin:round;stroke-miterlimit:10;" width="50.511" height="14.308"/>
		
			<polygon style="fill:#FFFFFF;stroke:#263238;stroke-width:2.5;stroke-linecap:round;stroke-linejoin:round;stroke-miterlimit:10;" points="
			108.426,478.607 70.397,478.607 68.922,427.651 109.902,427.651 		"/>
	</g>
</g>
<g id="Character">
	<g>
		<g>
			<g>
				<g>
					
						<polygon style="fill:#915A3F;stroke:#263238;stroke-width:2.5;stroke-linecap:round;stroke-linejoin:round;stroke-miterlimit:10;" points="
						317.178,441.185 317.717,460.655 357.646,456.895 361.659,441.185 					"/>
				</g>
				<g>
					
						<polygon style="fill:#EC644E;stroke:#263238;stroke-width:2.5;stroke-linecap:round;stroke-linejoin:round;stroke-miterlimit:10;" points="
						357.879,460.656 357.879,476.883 299.26,476.883 317.718,460.656 316.529,456.895 357.646,456.895 					"/>
					
						<path style="fill:none;stroke:#263238;stroke-width:2.5;stroke-linecap:round;stroke-linejoin:round;stroke-miterlimit:10;" d="
						M322.88,465.7c0,0-3.736-3.91-9.682-3.22"/>
					
						<path style="fill:none;stroke:#263238;stroke-width:2.5;stroke-linecap:round;stroke-linejoin:round;stroke-miterlimit:10;" d="
						M324.666,462.555c0,0-3.994-3.647-9.879-2.552"/>
					
						<path style="fill:#FFFFFF;stroke:#263238;stroke-width:2.5;stroke-linecap:round;stroke-linejoin:round;stroke-miterlimit:10;" d="
						M359.298,478.607l-1.419-17.951c-4.312,0.819-14.996,10.313-18.744,11.052c-3.749,0.739-8.259-1.627-11.275-1.305
						c-3.016,0.323-5.598,1.936-7.534,1.936c-1.937,0-6.117-4.761-10.804-4.478c-4.687,0.283-14.026,10.745-10.261,10.745
						C303.025,478.607,359.298,478.607,359.298,478.607z"/>
				</g>
			</g>
			<g>
				<g>
					
						<polygon style="fill:#915A3F;stroke:#263238;stroke-width:2.5;stroke-linecap:round;stroke-linejoin:round;stroke-miterlimit:10;" points="
						412.663,441.185 418.202,460.655 458.367,460.655 457.143,441.185 					"/>
				</g>
				<g>
					
						<polygon style="fill:#EC644E;stroke:#263238;stroke-width:2.5;stroke-linecap:round;stroke-linejoin:round;stroke-miterlimit:10;" points="
						458.363,460.656 458.363,476.883 399.744,476.883 418.202,460.656 417.013,456.895 458.13,456.895 					"/>
					
						<path style="fill:none;stroke:#263238;stroke-width:2.5;stroke-linecap:round;stroke-linejoin:round;stroke-miterlimit:10;" d="
						M423.364,465.7c0,0-3.736-3.91-9.682-3.22"/>
					
						<path style="fill:none;stroke:#263238;stroke-width:2.5;stroke-linecap:round;stroke-linejoin:round;stroke-miterlimit:10;" d="
						M425.15,462.555c0,0-3.994-3.647-9.879-2.552"/>
					
						<path style="fill:#FFFFFF;stroke:#263238;stroke-width:2.5;stroke-linecap:round;stroke-linejoin:round;stroke-miterlimit:10;" d="
						M460.532,478.607l-2.169-17.951c-4.312,0.819-14.996,10.313-18.744,11.052c-3.748,0.739-8.259-1.627-11.275-1.305
						c-3.016,0.323-5.598,1.936-7.534,1.936s-6.117-4.761-10.804-4.478c-4.687,0.283-14.026,10.745-10.261,10.745
						C403.509,478.607,460.532,478.607,460.532,478.607z"/>
				</g>
			</g>
			<g>
				<path style="fill:#263238;" d="M416.513,247.34h-63.061c-1.892,24.805,18.646,98.502,19.277,105.859
					c0.506,5.901,24.746,62.592,27.601,87.264c1.041,8.995,7.316,10.089,7.316,10.089s-0.831-5.725,38.129-1.359
					c20.754,2.326,19.9-2.95,19.9-2.95s-7.887-51.49-15.962-70.916c-7.741-18.622-17.292-29.354-17.292-29.354
					c-1.192-8.061-4.482-28.483-8.178-51.233C424.242,294.739,427.17,280.263,416.513,247.34z"/>
				<path style="fill:#FFFFFF;" d="M450.15,449.646c7.182-0.691,6.759-3.352,6.759-3.352s-7.754-51.511-15.783-70.952
					c-7.691-18.65-17.213-29.405-17.213-29.405c-1.169-8.063-4.405-28.492-8.045-51.251c0,0,2.968-14.472-7.605-47.42l8.52,0.022
					c10.563,32.948,7.605,47.42,7.605,47.42c3.63,22.76,6.866,43.188,8.035,51.251c0,0,9.522,10.755,17.213,29.405
					c8.029,19.441,15.783,70.952,15.783,70.952S466.127,450.778,450.15,449.646z"/>
				<path style="fill:#263238;" d="M450.416,449.61c-2.93,0.29-7.13,0.26-13.15-0.42c-8.06-0.9-14.42-1.37-19.44-1.55
					c5.63-0.26,14.38,0.03,27.95,1.55C447.456,449.38,449.007,449.52,450.416,449.61z"/>
				<path style="fill:none;stroke:#263238;stroke-width:2.5;stroke-linecap:round;stroke-linejoin:round;stroke-miterlimit:10;" d="
					M416.513,247.34h-63.061c-1.892,24.805,18.646,98.502,19.277,105.859c0.506,5.901,24.746,62.592,27.601,87.264
					c1.041,8.995,7.316,10.089,7.316,10.089s-0.831-5.725,38.129-1.359c20.754,2.326,19.9-2.95,19.9-2.95
					s-7.887-51.49-15.962-70.916c-7.741-18.622-17.292-29.354-17.292-29.354c-1.192-8.061-4.482-28.483-8.178-51.233
					C424.242,294.739,427.17,280.263,416.513,247.34z"/>
				<path style="fill:#263238;" d="M414.413,448.436l1.471,4.205c0,0-7.75,0.395-9.08-1.755
					C405.474,448.735,414.413,448.436,414.413,448.436z"/>
			</g>
			<g>
				<path style="fill:#263238;" d="M389.021,294.739c-5.243,2.991-11.493,3.923-11.493,3.923
					c-6.22,22.308-9.537,37.177-11.338,47.31c0,0,4.761,17.686,3.92,38.707c-0.841,21.021-3.888,61.563-3.888,61.563
					s-4.656,4.31-25.495,2.95c-25.532-1.666-35.028-0.665-35.028-0.665s2.768-89.428,2.262-95.328
					c-0.631-7.357,7.074-81.054,8.966-105.859h66.476"/>
				<path style="fill:#9ABAE3;" d="M315.518,448.233c5.59,0.01,13.8,0.21,25.21,0.96c5.21,0.34,9.41,0.33,12.78,0.11
					c-1.74-0.02-3.62-0.1-5.66-0.24C329.918,447.893,319.898,448.043,315.518,448.233z"/>
				<path style="fill:#9ABAE3;" d="M312.648,448.253c0.11,0.1,0.17,0.15,0.17,0.15s0.84-0.09,2.7-0.17
					C314.468,448.233,313.518,448.233,312.648,448.253z"/>
				<path style="fill:none;stroke:#263238;stroke-width:2.5;stroke-linecap:round;stroke-linejoin:round;stroke-miterlimit:10;" d="
					M389.021,294.739c-5.243,2.991-11.493,3.923-11.493,3.923c-6.22,22.308-9.537,37.177-11.338,47.31c0,0,4.761,17.686,3.92,38.707
					c-0.841,21.021-3.888,61.563-3.888,61.563s-4.656,4.31-25.495,2.95c-25.532-1.666-35.028-0.665-35.028-0.665
					s2.768-89.428,2.262-95.328c-0.631-7.357,7.074-81.054,8.966-105.859h66.476"/>
				<path style="fill:none;stroke:#FFFFFF;stroke-width:2.5;stroke-linecap:round;stroke-linejoin:round;stroke-miterlimit:10;" d="
					M323.881,251.529c0,0-8.865,96.956-8.975,102.861c-0.109,5.905-2.258,88.951-2.258,88.951"/>
				<path style="fill:none;stroke:#FFFFFF;stroke-width:2.5;stroke-linecap:round;stroke-linejoin:round;stroke-miterlimit:10;" d="
					M329.476,251.529c0,0-8.866,96.956-8.975,102.861c-0.109,5.905-2.236,88.951-2.236,88.951"/>
				<path style="fill:none;stroke:#FFFFFF;stroke-width:2.5;stroke-linecap:round;stroke-linejoin:round;stroke-miterlimit:10;" d="
					M389.021,294.739c-5.243,2.991-11.493,3.923-11.493,3.923c-3.586,12.859-6.207,23.246-8.128,31.68"/>
			</g>
		</g>
		<g>
			<g>
				<g>
					<path style="fill:#9ABAE3;" d="M359.314,162.245c8.963-6.751,18.506-16.021,33.404-8.553
						c14.898,7.468,53.348,29.385,57.019,35.285c4.895,7.865,5.408,16.832,0.868,22.714c-4.736,6.135-35.275,31.872-35.74,31.231
						c-12.61-17.372-25.303-28.881-25.622-29.326c-0.319-0.445,12.841-9.449,12.841-9.449l-22.247-10.709"/>
				</g>
				<g>
					<path style="fill:#FFFFFF;" d="M450.6,211.69c-4.73,6.14-35.27,31.87-35.74,31.23c-0.3-0.42-0.61-0.83-0.91-1.24
						c9.22-7.49,26.42-22.41,29.88-26.89c4.54-5.88,4.02-14.85-0.87-22.71c-3.67-5.9-42.12-27.82-57.02-35.29
						c-6.38-3.19-11.77-3.32-16.56-1.89c6.41-3.9,13.77-6.01,23.34-1.21c14.9,7.47,53.35,29.39,57.02,35.29
						C454.63,196.84,455.14,205.81,450.6,211.69z"/>
				</g>
				<g>
					
						<path style="fill:none;stroke:#263238;stroke-width:2.5;stroke-linecap:round;stroke-linejoin:round;stroke-miterlimit:10;" d="
						M359.314,162.245c8.963-6.751,18.506-16.021,33.404-8.553c14.898,7.468,53.348,29.385,57.019,35.285
						c4.895,7.865,5.408,16.832,0.868,22.714c-4.736,6.135-35.275,31.872-35.74,31.231c-12.61-17.372-25.303-28.881-25.622-29.326
						c-0.319-0.445,12.841-9.449,12.841-9.449l-22.247-10.709"/>
				</g>
			</g>
			<g>
				
					<rect x="219.403" y="193.967" transform="matrix(0.9922 0.1248 -0.1248 0.9922 29.7111 -40.5059)" style="fill:#FFFFFF;stroke:#263238;stroke-width:2.5;stroke-linecap:round;stroke-linejoin:round;stroke-miterlimit:10;" width="237.66" height="45.953"/>
				
					<rect x="456.076" y="212.71" transform="matrix(0.9922 0.1248 -0.1248 0.9922 32.6569 -56.0227)" style="fill:#EC644E;stroke:#263238;stroke-width:2.5;stroke-linecap:round;stroke-linejoin:round;stroke-miterlimit:10;" width="15.03" height="39.996"/>
				
					<polygon style="fill:#FFFFFF;stroke:#263238;stroke-width:2.5;stroke-linecap:round;stroke-linejoin:round;stroke-miterlimit:10;" points="
					222.789,182.574 217.791,222.316 206.91,220.947 178.942,204.62 180.768,190.1 211.908,181.206 				"/>
				
					<rect x="173.439" y="191.002" transform="matrix(0.9922 0.1248 -0.1248 0.9922 25.9677 -20.5018)" style="fill:#FFFFFF;stroke:#263238;stroke-width:2.5;stroke-linecap:round;stroke-linejoin:round;stroke-miterlimit:10;" width="6.428" height="12.103"/>
				
					<polygon style="fill:#EC644E;stroke:#263238;stroke-width:2.5;stroke-linecap:round;stroke-linejoin:round;stroke-miterlimit:10;" points="
					163.594,191.028 174.007,192.337 172.922,200.968 165.886,200.083 				"/>
				
					<rect x="251.109" y="197.692" transform="matrix(0.9922 0.1248 -0.1248 0.9922 27.9947 -37.6094)" style="fill:#EC644E;stroke:#263238;stroke-width:2.5;stroke-linecap:round;stroke-linejoin:round;stroke-miterlimit:10;" width="126.282" height="13.994"/>
				
					<line style="fill:none;stroke:#263238;stroke-width:2.5;stroke-linecap:round;stroke-linejoin:round;stroke-miterlimit:10;" x1="211.338" y1="184.643" x2="208.094" y2="210.442"/>
			</g>
			<g>
				<g>
					<path style="fill:#915A3F;" d="M365.629,148.752c1.855-7.889-2.028-15.55-8.673-17.113c-6.645-1.562-13.535,3.566-15.39,11.455
						c-1.855,7.889,2.028,15.55,8.673,17.113C356.884,161.769,363.774,156.64,365.629,148.752z"/>
					<path style="fill:#FFFFFF;" d="M350.24,160.207c1.854,0.435,3.733,0.35,5.511-0.178c-0.9,0.039-1.804-0.043-2.71-0.253
						c-6.298-1.484-9.979-8.746-8.222-16.227c1.761-7.481,8.293-12.34,14.59-10.861c0.158,0.039,0.321,0.078,0.476,0.126
						c-0.898-0.53-1.88-0.931-2.93-1.176c-6.642-1.56-13.534,3.568-15.389,11.456C339.711,150.983,343.593,158.643,350.24,160.207z"
						/>
					
						<path style="fill:none;stroke:#263238;stroke-width:2.5;stroke-linecap:round;stroke-linejoin:round;stroke-miterlimit:10;" d="
						M365.629,148.752c1.855-7.889-2.028-15.55-8.673-17.113c-6.645-1.562-13.535,3.566-15.39,11.455
						c-1.855,7.889,2.028,15.55,8.673,17.113C356.884,161.769,363.774,156.64,365.629,148.752z"/>
				</g>
				<g>
					
						<path style="fill:#9ABAE3;stroke:#263238;stroke-width:2.5;stroke-linecap:round;stroke-linejoin:round;stroke-miterlimit:10;" d="
						M341.978,135.97c0,0,11.674,8.005,24.576,14.953l2.865-5.165l-0.849-2.083c0,0,2.697-7.22,1.402-10.857
						s-4.407-2.662-6.243-3.593s-5.794-3.365-10.3-1.511c-4.506,1.854-5.665,3.908-5.665,3.908l-1.905-0.692L341.978,135.97z"/>
					
						<line style="fill:#FFFFFF;stroke:#263238;stroke-width:2.5;stroke-linecap:round;stroke-linejoin:round;stroke-miterlimit:10;" x1="350.233" y1="133.678" x2="364.775" y2="142.658"/>
				</g>
			</g>
			<path style="fill:none;stroke:#263238;stroke-width:2.5;stroke-linecap:round;stroke-linejoin:round;stroke-miterlimit:10;" d="
				M296.202,203.896"/>
			<g>
				<path style="fill:#9ABAE3;" d="M348.339,160.351c10.081-1.457,15.95-5.486,30.845-3.549
					c27.126,3.527,31.146,61.806,34.768,68.771c9.99,19.211,10.906,21.695,10.729,24.011c0,0-0.79-1.814-6.671,0.833
					c-4.658,2.097-14.298,8.94-33.111,13.886c-18.814,4.946-53.828,4.303-63.258,5.924c-11.994,2.063-12.392,4.698-12.392,4.698
					s-4.172-4.572-3.774-11.999c0.398-7.427,3.125-81.184,14.347-93.783C327.944,160.024,342.225,161.234,348.339,160.351z"/>
				<path style="fill:#263238;" d="M319.938,270.539l-3.27,5.185c0,0-7.73,1.683-8.338-0.311
					C307.721,273.42,319.938,270.539,319.938,270.539z"/>
				<path style="fill:#263238;" d="M425.533,249.867c0.203,1.122-3.655,3.388-7.513,5.76l-2.233-4.302
					C415.787,251.326,425.042,247.154,425.533,249.867z"/>
				<path style="fill:none;stroke:#263238;stroke-width:2.5;stroke-linecap:round;stroke-linejoin:round;stroke-miterlimit:10;" d="
					M403.102,183.12c6.577,17.708,8.778,38.47,10.849,42.452c9.99,19.211,10.906,21.695,10.729,24.011c0,0-0.79-1.814-6.671,0.833
					c-4.658,2.097-14.298,8.94-33.111,13.886c-18.814,4.946-53.828,4.303-63.258,5.924c-11.994,2.063-12.392,4.698-12.392,4.698
					s-4.172-4.572-3.774-11.999c0.398-7.427,3.125-81.184,14.347-93.783c8.122-9.119,22.403-7.909,28.517-8.792
					c10.081-1.457,15.95-5.486,30.845-3.549"/>
			</g>
			<g>
				<g>
					<g>
						<g>
							
								<path style="fill:#915A3F;stroke:#263238;stroke-width:2.5;stroke-linecap:round;stroke-linejoin:round;stroke-miterlimit:10;" d="
								M217.444,224.528c0,0-11.783-6.926-14.039-2.949c-2.94,5.184,15.678,16.686,22.569,18.809L217.444,224.528z"/>
						</g>
						<g>
							<g>
								
									<path style="fill:#915A3F;stroke:#263238;stroke-width:2.5;stroke-linecap:round;stroke-linejoin:round;stroke-miterlimit:10;" d="
									M231.775,243.467c7.514,3.967,29.023,2.001,29.023,2.001l-5.104-30.573c0,0-13.168,0.32-15.009-0.122
									c-1.639-0.397-14.262-7.299-16.887-5.751c-4.695,2.768,8.061,13.82,7.487,14.239c-4.594,3.359-17.771-8.925-21.612-6.421
									C204.475,220.23,218.612,236.518,231.775,243.467z"/>
							</g>
							
								<path style="fill:none;stroke:#263238;stroke-width:2.5;stroke-linecap:round;stroke-linejoin:round;stroke-miterlimit:10;" d="
								M224.944,210.622c0,0,4.596,7.682,11.385,2.493"/>
						</g>
					</g>
					<g>
						<path style="fill:#9ABAE3;" d="M351.429,158.465c-6.355,0.852-18.761-1.447-28.804,4.422
							c-11.604,6.782-24.446,38.808-28.438,43.688c0,0-40.315,5.214-41.621,5.025c-1.305-0.189-1.957,9.238,1.723,20.149
							c3.679,10.911,5.704,19.721,3.555,21.804c0,0,50.89-1.798,55.428-3.837c7.37-3.311,25.751-38.719,25.751-38.719"/>
						
							<path style="fill:none;stroke:#263238;stroke-width:2.5;stroke-linecap:round;stroke-linejoin:round;stroke-miterlimit:10;" d="
							M351.429,158.465c-6.355,0.852-18.761-1.447-28.804,4.422c-11.604,6.782-24.446,38.808-28.438,43.688
							c0,0-40.315,5.214-41.621,5.025c-1.305-0.189-1.957,9.238,1.723,20.149c3.679,10.911,5.704,19.721,3.555,21.804
							c0,0,50.89-1.798,55.428-3.837c7.37-3.311,25.751-38.719,25.751-38.719"/>
						
							<line style="fill:none;stroke:#263238;stroke-width:2.5;stroke-linecap:round;stroke-linejoin:round;stroke-miterlimit:10;" x1="341.421" y1="216.378" x2="334.498" y2="219.379"/>
					</g>
				</g>
			</g>
			<path style="fill:none;stroke:#263238;stroke-width:2.5;stroke-linecap:round;stroke-linejoin:round;stroke-miterlimit:10;" d="
				M379.615,241.447c0,0-6.57-1.083-15.018-6.023"/>
			<path style="fill:none;stroke:#263238;stroke-width:2.5;stroke-linecap:round;stroke-linejoin:round;stroke-miterlimit:10;" d="
				M370.809,243.193c0,0-4.969-1.103-6.785-1.851"/>
			<g>
				<path style="fill:#9ABAE3;" d="M340.662,158.722c0,0,26.365-9.892,35.262-10.237c17.538-0.68,30.719,26.07,20.976,33.95
					c-12.367,10.002-36.685-10.669-38.995-10.211c-2.31,0.458-16.116,8.317-19.358-4.804"/>
				<path style="fill:#FFFFFF;" d="M396.897,182.439c-1.53,1.23-3.24,2-5.06,2.4c8.78-8.38-4.25-34.17-21.47-33.5
					c-6.38,0.24-21.74,5.4-29.93,8.3l0.22-0.92c0,0,26.37-9.89,35.27-10.23C393.467,147.809,406.647,174.549,396.897,182.439z"/>
				<path style="fill:none;stroke:#263238;stroke-width:2.5;stroke-linecap:round;stroke-linejoin:round;stroke-miterlimit:10;" d="
					M340.662,158.722c0,0,26.365-9.892,35.262-10.237c17.538-0.68,30.719,26.07,20.976,33.95
					c-12.367,10.002-36.685-10.669-38.995-10.211c-2.31,0.458-16.116,8.317-19.358-4.804"/>
			</g>
		</g>
	</g>
</g>
<g id="Speech_Bubble">
	<g>
		
			<path style="fill:#FFFFFF;stroke:#263238;stroke-width:2.5;stroke-linecap:round;stroke-linejoin:round;stroke-miterlimit:10;" d="
			M447.959,69.108v49.405c0,1.432-1.161,2.592-2.593,2.592h-15.489l-14.444,9.26c-1.726,1.106-3.992-0.133-3.992-2.183v-7.077
			h-15.48c-1.432,0-2.592-1.161-2.592-2.592V69.108c0-1.432,1.161-2.593,2.592-2.593h49.405
			C446.798,66.515,447.959,67.676,447.959,69.108z"/>
		
			<path style="fill:#EC644E;stroke:#263238;stroke-width:2.5;stroke-linecap:round;stroke-linejoin:round;stroke-miterlimit:10;" d="
			M414.47,107.417l-9.364-9.364c-0.473-0.473-0.473-1.24,0-1.713l2.838-2.837c0.473-0.473,1.24-0.473,1.713,0l5.213,5.213
			c0.252,0.252,0.661,0.252,0.914,0l15.888-15.888c0.473-0.473,1.24-0.473,1.713,0l2.837,2.837c0.473,0.473,0.473,1.24,0,1.713
			l-20.039,20.038C415.71,107.89,414.943,107.89,414.47,107.417z"/>
	</g>
</g>
</svg>
