<?xml version="1.0" encoding="utf-8"?>
<svg version="1.1" xmlns="http://www.w3.org/2000/svg" x="0px" y="0px" viewBox="0 0 500 500" style="enable-background:new 0 0 500 500;">
  <g id="Background_complete">
    <g>
      <g>
        <g>
          <rect x="407.458" y="200.534" style="fill:#E0E0E0;" width="47.5" height="89.549"/>
          <rect x="396.831" y="200.534" style="fill:#EBEBEB;" width="55.797" height="89.549"/>
          <rect x="405.312" y="208.488" style="fill:#FFFFFF;" width="38.809" height="73.641"/>
        </g>
      </g>
      <path style="fill:#E0E0E0;" d="M396.831,200.534c0.687,0,8.481,7.954,8.481,7.954h38.809l8.507-7.954H396.831z"/>
      <path style="fill:#E0E0E0;" d="M452.628,290.082c-0.686,0-8.481-7.954-8.481-7.954h-38.809l-8.507,7.954H452.628z"/>
      <rect x="418.582" y="227.666" style="fill:#E0E0E0;" width="13.811" height="21.828"/>
    </g>
    <g>
      <g>
        <g>
          <g>
            <g>
              <path style="fill:#E0E0E0;" d="M443.92,316.245H263.174c-3.232,0-5.862-2.63-5.862-5.862V47.11 c0-3.232,2.63-5.862,5.862-5.862H443.92c3.232,0,5.862,2.629,5.862,5.862v263.273 C449.783,313.616,447.153,316.245,443.92,316.245z M263.174,41.498c-3.095,0-5.612,2.518-5.612,5.612v263.273 c0,3.095,2.518,5.612,5.612,5.612H443.92c3.095,0,5.612-2.517,5.612-5.612V47.11c0-3.094-2.518-5.612-5.612-5.612H263.174z"/>
            </g>
          </g>
          <g>
            <g>
              <path style="fill:#E0E0E0;" d="M235.493,316.245H54.746c-3.232,0-5.862-2.63-5.862-5.862V47.11 c0-3.232,2.629-5.862,5.862-5.862h180.747c3.232,0,5.862,2.629,5.862,5.862v263.273 C241.355,313.616,238.725,316.245,235.493,316.245z M54.746,41.498c-3.094,0-5.612,2.518-5.612,5.612v263.273 c0,3.095,2.518,5.612,5.612,5.612h180.747c3.095,0,5.612-2.517,5.612-5.612V47.11c0-3.094-2.518-5.612-5.612-5.612H54.746z"/>
            </g>
          </g>
        </g>
        <g>
          <g>
            <rect x="0" y="377.315" style="fill:#E0E0E0;" width="500" height="0.25"/>
          </g>
        </g>
      </g>
      <rect x="51.672" y="391.579" style="fill:#E0E0E0;" width="16.06" height="0.25"/>
      <rect x="170.352" y="388.869" style="fill:#E0E0E0;" width="53.53" height="0.25"/>
      <rect x="68.732" y="400.869" style="fill:#E0E0E0;" width="36.25" height="0.25"/>
      <rect x="378.352" y="388.739" style="fill:#E0E0E0;" width="43.19" height="0.25"/>
      <rect x="430.452" y="388.739" style="fill:#E0E0E0;" width="6.33" height="0.25"/>
      <rect x="316.212" y="394.969" style="fill:#E0E0E0;" width="53.89" height="0.25"/>
    </g>
    <g>
      <rect x="33.656" y="97.128" style="fill:#E6E6E6;" width="34.729" height="11.526"/>
      <rect x="51.02" y="108.653" style="fill:#F5F5F5;" width="34.728" height="11.526"/>
    </g>
    <g>
      <rect x="376.845" y="133.442" style="fill:#E6E6E6;" width="34.728" height="11.526"/>
      <rect x="394.209" y="144.967" style="fill:#F5F5F5;" width="34.728" height="11.526"/>
    </g>
    <g>
      <rect x="34.903" y="346.553" style="fill:#E6E6E6;" width="34.728" height="11.526"/>
      <rect x="52.268" y="358.078" style="fill:#F5F5F5;" width="34.728" height="11.526"/>
    </g>
    <rect x="145.12" y="35.735" style="fill:#F5F5F5;" width="34.728" height="11.526"/>
    <rect x="33.656" y="206.756" style="fill:#F5F5F5;" width="34.729" height="11.526"/>
    <g>
      <rect x="431.128" y="331.894" style="fill:#F5F5F5;" width="34.728" height="11.526"/>
      <rect x="444.662" y="343.419" style="fill:#EBEBEB;" width="34.728" height="11.526"/>
    </g>
    <g>
      <rect x="309.939" y="29.471" style="fill:#F5F5F5;" width="34.729" height="11.526"/>
      <rect x="323.474" y="40.997" style="fill:#EBEBEB;" width="34.729" height="11.526"/>
    </g>
  </g>
  <g id="Background_simple" style="display:none;">
    <g style="display:inline;">
      <path style="fill:#407BFF;" d="M161.267,156.433c-27.902,2.234-54.809,6.989-78.672,14.448 c-28.126,8.791-56.863,22.487-48.375,40.401c15.67,33.072,90.842,33.674,75.833,55.911c-17.001,25.188-5.6,54.734,70.687,62.95 c144.896,15.605,320.055-75.705,270.859-125.88C420.973,173.027,309.422,144.574,161.267,156.433z"/>
      <path style="opacity:0.9;fill:#FFFFFF;" d="M161.267,156.433c-27.902,2.234-54.809,6.989-78.672,14.448 c-28.126,8.791-56.863,22.487-48.375,40.401c15.67,33.072,90.842,33.674,75.833,55.911c-17.001,25.188-5.6,54.734,70.687,62.95 c144.896,15.605,320.055-75.705,270.859-125.88C420.973,173.027,309.422,144.574,161.267,156.433z"/>
    </g>
  </g>
  <g id="Shadow">
    <g>
      <g>
        <path style="fill:#F5F5F5;" d="M458.875,439.762c0,3.387-93.517,6.132-208.875,6.132s-208.875-2.746-208.875-6.132 c0-3.387,93.516-6.132,208.875-6.132S458.875,436.375,458.875,439.762z"/>
      </g>
    </g>
  </g>
  <g id="Picture">
    <g>
      <g>
        <g>
          <rect x="406.684" y="96.109" style="fill:#407BFF;" width="47.402" height="89.363"/>
          <rect x="406.684" y="96.109" style="opacity: 1;" width="47.402" height="89.363"/>
          <rect x="396.078" y="96.109" style="fill: rgb(186, 131, 222);" width="55.681" height="89.363"/>
          <rect x="404.542" y="104.047" style="fill:#FFFFFF;" width="38.728" height="73.488"/>
        </g>
      </g>
      <path style="opacity:0.3;" d="M396.078,96.109c0.685,0,8.463,7.937,8.463,7.937h38.728l8.49-7.937H396.078z"/>
      <path style="opacity:0.3;" d="M451.759,185.472c-0.685,0-8.463-7.937-8.463-7.937h-38.728l-8.49,7.937H451.759z"/>
      <rect x="417.784" y="123.185" style="fill: rgb(186, 131, 222);" width="13.783" height="21.783"/>
    </g>
  </g>
  <g id="Notebook">
    <g>
      <rect x="119.298" y="71.461" style="fill:#407BFF;" width="239.127" height="365.69"/>
      <rect x="119.298" y="71.461" style="opacity:0.8;fill:#FFFFFF;" width="239.127" height="365.69"/>
      <path style="opacity:0.5;" d="M142.225,80.392c0,1.168-0.943,2.115-2.106,2.115c-1.163,0-2.106-0.947-2.106-2.115 c0-1.168,0.943-2.115,2.106-2.115C141.282,78.276,142.225,79.223,142.225,80.392z"/>
      <path style="opacity:0.5;" d="M164.279,80.392c0,1.168-0.943,2.115-2.106,2.115c-1.163,0-2.106-0.947-2.106-2.115 c0-1.168,0.943-2.115,2.106-2.115C163.336,78.276,164.279,79.223,164.279,80.392z"/>
      <path style="opacity:0.5;" d="M186.332,80.392c0,1.168-0.943,2.115-2.106,2.115c-1.163,0-2.106-0.947-2.106-2.115 c0-1.168,0.943-2.115,2.106-2.115C185.389,78.276,186.332,79.223,186.332,80.392z"/>
      <path style="opacity:0.5;" d="M208.386,80.392c0,1.168-0.943,2.115-2.106,2.115c-1.163,0-2.106-0.947-2.106-2.115 c0-1.168,0.943-2.115,2.106-2.115C207.443,78.276,208.386,79.223,208.386,80.392z"/>
      <path style="opacity:0.5;" d="M230.439,80.392c0,1.168-0.943,2.115-2.106,2.115c-1.163,0-2.106-0.947-2.106-2.115 c0-1.168,0.943-2.115,2.106-2.115C229.496,78.276,230.439,79.223,230.439,80.392z"/>
      <path style="opacity:0.5;" d="M252.493,80.392c0,1.168-0.943,2.115-2.106,2.115c-1.163,0-2.106-0.947-2.106-2.115 c0-1.168,0.943-2.115,2.106-2.115C251.55,78.276,252.493,79.223,252.493,80.392z"/>
      <path style="opacity:0.5;" d="M274.546,80.392c0,1.168-0.943,2.115-2.106,2.115c-1.163,0-2.106-0.947-2.106-2.115 c0-1.168,0.943-2.115,2.106-2.115C273.603,78.276,274.546,79.223,274.546,80.392z"/>
      <path style="opacity:0.5;" d="M296.6,80.392c0,1.168-0.943,2.115-2.106,2.115c-1.163,0-2.106-0.947-2.106-2.115 c0-1.168,0.943-2.115,2.106-2.115C295.657,78.276,296.6,79.223,296.6,80.392z"/>
      <path style="opacity:0.5;" d="M318.653,80.392c0,1.168-0.943,2.115-2.106,2.115c-1.163,0-2.106-0.947-2.106-2.115 c0-1.168,0.943-2.115,2.106-2.115C317.71,78.276,318.653,79.223,318.653,80.392z"/>
      <path style="opacity:0.5;" d="M340.707,80.392c0,1.168-0.943,2.115-2.106,2.115c-1.163,0-2.106-0.947-2.106-2.115 c0-1.168,0.943-2.115,2.106-2.115C339.764,78.276,340.707,79.223,340.707,80.392z"/>
      <path style="fill:none;stroke:#263238;stroke-width:2;stroke-linejoin:round;stroke-miterlimit:10;" d="M140.305,80.392 c-5.041,0-9.127-4.104-9.127-9.166s4.086-9.166,9.127-9.166s9.127,4.104,9.127,9.166"/>
      <path style="fill:none;stroke:#263238;stroke-width:2;stroke-linejoin:round;stroke-miterlimit:10;" d="M162.519,80.392 c-5.041,0-9.127-4.104-9.127-9.166s4.086-9.166,9.127-9.166s9.127,4.104,9.127,9.166"/>
      <path style="fill:none;stroke:#263238;stroke-width:2;stroke-linejoin:round;stroke-miterlimit:10;" d="M184.734,80.392 c-5.041,0-9.127-4.104-9.127-9.166s4.086-9.166,9.127-9.166s9.127,4.104,9.127,9.166"/>
      <path style="fill:none;stroke:#263238;stroke-width:2;stroke-linejoin:round;stroke-miterlimit:10;" d="M206.948,80.392 c-5.041,0-9.127-4.104-9.127-9.166s4.086-9.166,9.127-9.166c5.041,0,9.127,4.104,9.127,9.166"/>
      <path style="fill:none;stroke:#263238;stroke-width:2;stroke-linejoin:round;stroke-miterlimit:10;" d="M229.163,80.392 c-5.041,0-9.127-4.104-9.127-9.166s4.086-9.166,9.127-9.166c5.041,0,9.127,4.104,9.127,9.166"/>
      <path style="fill:none;stroke:#263238;stroke-width:2;stroke-linejoin:round;stroke-miterlimit:10;" d="M251.377,80.392 c-5.041,0-9.127-4.104-9.127-9.166s4.086-9.166,9.127-9.166s9.127,4.104,9.127,9.166"/>
      <path style="fill:none;stroke:#263238;stroke-width:2;stroke-linejoin:round;stroke-miterlimit:10;" d="M273.592,80.392 c-5.041,0-9.127-4.104-9.127-9.166s4.086-9.166,9.127-9.166c5.041,0,9.127,4.104,9.127,9.166"/>
      <path style="fill:none;stroke:#263238;stroke-width:2;stroke-linejoin:round;stroke-miterlimit:10;" d="M295.807,80.392 c-5.041,0-9.127-4.104-9.127-9.166s4.086-9.166,9.127-9.166c5.041,0,9.127,4.104,9.127,9.166"/>
      <path style="fill:none;stroke:#263238;stroke-width:2;stroke-linejoin:round;stroke-miterlimit:10;" d="M318.021,80.392 c-5.041,0-9.127-4.104-9.127-9.166s4.086-9.166,9.127-9.166c5.041,0,9.127,4.104,9.127,9.166"/>
      <path style="fill:none;stroke:#263238;stroke-width:2;stroke-linejoin:round;stroke-miterlimit:10;" d="M340.236,80.392 c-5.041,0-9.127-4.104-9.127-9.166s4.086-9.166,9.127-9.166c5.041,0,9.127,4.104,9.127,9.166"/>
      <polygon style="fill:#407BFF;" points="378.82,437.151 358.426,437.151 358.426,71.461 368.623,71.461 &#9;&#9;"/>
      <g>
        <path style="fill:none;stroke:#263238;stroke-width:2;stroke-linecap:round;stroke-linejoin:round;stroke-miterlimit:10;" d=" M199.086,145.007c42.58,0,85.159,0,127.739,0"/>
        <path style="fill:none;stroke:#263238;stroke-width:2;stroke-linecap:round;stroke-linejoin:round;stroke-miterlimit:10;" d=" M198.779,153.044c42.58,0,85.159,0,127.739,0"/>
        <path style="fill:none;stroke:#263238;stroke-width:2;stroke-linecap:round;stroke-linejoin:round;stroke-miterlimit:10;" d=" M198.779,161.202c20.484,0,40.967,0,61.451,0"/>
        <g>
          <rect x="165.756" y="140.597" style="fill:none;stroke:#263238;stroke-miterlimit:10;" width="20.864" height="20.953"/>
          <g>
            <polygon style="fill: rgb(186, 131, 222);" points="178.87,159.392 167.451,150.852 170.418,146.851 178.075,152.577 188.596,139.972 &#10;&#9;&#9;&#9;&#9;&#9;&#9;192.403,143.177 &#9;&#9;&#9;&#9;&#9;"/>
          </g>
        </g>
      </g>
      <g>
        <path style="fill:none;stroke:#263238;stroke-width:2;stroke-linecap:round;stroke-linejoin:round;stroke-miterlimit:10;" d=" M200.242,186.535c42.58,0,85.159,0,127.739,0"/>
        <path style="fill:none;stroke:#263238;stroke-width:2;stroke-linecap:round;stroke-linejoin:round;stroke-miterlimit:10;" d=" M199.934,194.572c42.58,0,85.159,0,127.739,0"/>
        <path style="fill:none;stroke:#263238;stroke-width:2;stroke-linecap:round;stroke-linejoin:round;stroke-miterlimit:10;" d=" M199.934,202.73c20.484,0,40.967,0,61.451,0"/>
        <g>
          <rect x="165.756" y="184.156" style="fill:none;stroke:#263238;stroke-miterlimit:10;" width="20.864" height="20.953"/>
          <g>
            <polygon style="fill: rgb(186, 131, 222);" points="178.87,202.951 167.451,194.411 170.418,190.41 178.075,196.136 188.596,183.531 &#10;&#9;&#9;&#9;&#9;&#9;&#9;192.403,186.736 &#9;&#9;&#9;&#9;&#9;"/>
          </g>
        </g>
      </g>
      <g>
        <path style="fill:none;stroke:#263238;stroke-width:2;stroke-linecap:round;stroke-linejoin:round;stroke-miterlimit:10;" d=" M199.24,228.702c42.58,0,85.159,0,127.739,0"/>
        <path style="fill:none;stroke:#263238;stroke-width:2;stroke-linecap:round;stroke-linejoin:round;stroke-miterlimit:10;" d=" M198.932,236.739c42.58,0,85.159,0,127.739,0"/>
        <path style="fill:none;stroke:#263238;stroke-width:2;stroke-linecap:round;stroke-linejoin:round;stroke-miterlimit:10;" d=" M198.932,244.897c20.484,0,40.967,0,61.451,0"/>
        <g>
          <rect x="165.756" y="227.715" style="fill:none;stroke:#263238;stroke-miterlimit:10;" width="20.864" height="20.953"/>
          <g>
            <polygon style="fill: rgb(186, 131, 222);" points="178.87,246.509 167.451,237.97 170.418,233.968 178.075,239.694 188.596,227.089 &#10;&#9;&#9;&#9;&#9;&#9;&#9;192.403,230.294 &#9;&#9;&#9;&#9;&#9;"/>
          </g>
        </g>
      </g>
      <g>
        <path style="fill:none;stroke:#263238;stroke-width:2;stroke-linecap:round;stroke-linejoin:round;stroke-miterlimit:10;" d=" M199.24,271.948c42.58,0,85.159,0,127.739,0"/>
        <path style="fill:none;stroke:#263238;stroke-width:2;stroke-linecap:round;stroke-linejoin:round;stroke-miterlimit:10;" d=" M198.932,279.985c42.58,0,85.159,0,127.739,0"/>
        <path style="fill:none;stroke:#263238;stroke-width:2;stroke-linecap:round;stroke-linejoin:round;stroke-miterlimit:10;" d=" M198.932,288.143c20.484,0,40.967,0,61.451,0"/>
        <g>
          <rect x="165.756" y="270.961" style="fill:none;stroke:#263238;stroke-miterlimit:10;" width="20.864" height="20.953"/>
        </g>
      </g>
      <g>
        <path style="fill:none;stroke:#263238;stroke-width:2;stroke-linecap:round;stroke-linejoin:round;stroke-miterlimit:10;" d=" M199.24,315.507c42.58,0,85.159,0,127.739,0"/>
        <path style="fill:none;stroke:#263238;stroke-width:2;stroke-linecap:round;stroke-linejoin:round;stroke-miterlimit:10;" d=" M198.932,323.544c42.58,0,85.159,0,127.739,0"/>
        <path style="fill:none;stroke:#263238;stroke-width:2;stroke-linecap:round;stroke-linejoin:round;stroke-miterlimit:10;" d=" M198.932,331.702c20.484,0,40.967,0,61.451,0"/>
        <g>
          <rect x="165.756" y="314.52" style="fill:none;stroke:#263238;stroke-miterlimit:10;" width="20.864" height="20.953"/>
        </g>
      </g>
      <g>
        <path style="fill:none;stroke:#263238;stroke-width:2;stroke-linecap:round;stroke-linejoin:round;stroke-miterlimit:10;" d=" M199.24,359.065c42.58,0,85.159,0,127.739,0"/>
        <path style="fill:none;stroke:#263238;stroke-width:2;stroke-linecap:round;stroke-linejoin:round;stroke-miterlimit:10;" d=" M198.932,367.102c42.58,0,85.159,0,127.739,0"/>
        <path style="fill:none;stroke:#263238;stroke-width:2;stroke-linecap:round;stroke-linejoin:round;stroke-miterlimit:10;" d=" M198.932,375.26c20.484,0,40.967,0,61.451,0"/>
        <g>
          <rect x="165.756" y="358.078" style="fill:none;stroke:#263238;stroke-miterlimit:10;" width="20.864" height="20.953"/>
        </g>
      </g>
      <path style="fill:none;stroke:#407BFF;stroke-miterlimit:10;" d="M145.426,71.461c0,121.981,0,243.961,0,365.942"/>
      <polygon style="opacity:0.6;fill:#FFFFFF;" points="378.82,437.151 358.426,437.151 358.426,71.461 368.623,71.461 &#9;&#9;"/>
      <path style="opacity:0.1;fill:none;stroke:#000000;stroke-miterlimit:10;" d="M119.298,109.845c79.819,0,159.637,0,239.455,0"/>
      <path style="opacity:0.1;fill:none;stroke:#000000;stroke-miterlimit:10;" d="M119.298,129.309c79.819,0,159.637,0,239.455,0"/>
      <path style="opacity:0.1;fill:none;stroke:#000000;stroke-miterlimit:10;" d="M119.298,148.774c79.819,0,159.637,0,239.455,0"/>
      <path style="opacity:0.1;fill:none;stroke:#000000;stroke-miterlimit:10;" d="M119.298,168.238c79.819,0,159.637,0,239.455,0"/>
      <path style="opacity:0.1;fill:none;stroke:#000000;stroke-miterlimit:10;" d="M119.298,187.703c79.819,0,159.637,0,239.455,0"/>
      <path style="opacity:0.1;fill:none;stroke:#000000;stroke-miterlimit:10;" d="M119.298,207.167c79.819,0,159.637,0,239.455,0"/>
      <path style="opacity:0.1;fill:none;stroke:#000000;stroke-miterlimit:10;" d="M119.298,226.632c79.819,0,159.637,0,239.455,0"/>
      <path style="opacity:0.1;fill:none;stroke:#000000;stroke-miterlimit:10;" d="M119.298,246.096c79.819,0,159.637,0,239.455,0"/>
      <path style="opacity:0.1;fill:none;stroke:#000000;stroke-miterlimit:10;" d="M119.298,265.561c79.819,0,159.637,0,239.455,0"/>
      <path style="opacity:0.1;fill:none;stroke:#000000;stroke-miterlimit:10;" d="M119.298,285.026c79.819,0,159.637,0,239.455,0"/>
      <path style="opacity:0.1;fill:none;stroke:#000000;stroke-miterlimit:10;" d="M119.298,304.49c79.819,0,159.637,0,239.455,0"/>
      <path style="opacity:0.1;fill:none;stroke:#000000;stroke-miterlimit:10;" d="M119.298,323.954c79.819,0,159.637,0,239.455,0"/>
      <path style="opacity:0.1;fill:none;stroke:#000000;stroke-miterlimit:10;" d="M119.298,343.419c79.819,0,159.637,0,239.455,0"/>
      <path style="opacity:0.1;fill:none;stroke:#000000;stroke-miterlimit:10;" d="M119.298,362.884c79.819,0,159.637,0,239.455,0"/>
      <path style="opacity:0.1;fill:none;stroke:#000000;stroke-miterlimit:10;" d="M119.298,382.348c79.819,0,159.637,0,239.455,0"/>
      <path style="opacity:0.1;fill:none;stroke:#000000;stroke-miterlimit:10;" d="M119.298,401.813c79.819,0,159.637,0,239.455,0"/>
      <path style="opacity:0.1;fill:none;stroke:#000000;stroke-miterlimit:10;" d="M119.298,421.277c79.819,0,159.637,0,239.455,0"/>
      <rect x="175.34" y="108.027" style="fill: rgb(186, 131, 222);" width="151.177" height="7.119"/>
    </g>
  </g>
  <g id="Plant">
    <g>
      <g>
        <g>
          <g>
            <path style="fill:#263238;" d="M407.873,400.768c-0.014-0.42-1.458-42.127-8.391-48.724 c-6.743-6.414-14.481-0.239-14.807,0.027l-0.695-0.815c0.088-0.072,8.821-7.049,16.258,0.027 c7.244,6.893,8.661,47.717,8.718,49.452L407.873,400.768z"/>
          </g>
          <g>
            <path style="fill:#263238;" d="M408.468,408.965c-0.05-0.499-4.738-50.07,13.762-70.846l0.818,0.697 c-18.193,20.432-13.549,69.552-13.5,70.045L408.468,408.965z"/>
          </g>
          <g>
            <path style="fill:#263238;" d="M407.784,403.721l-1.083-0.071c0.038-0.562,3.621-56.355-9.949-68.569l0.734-0.782 C411.436,346.857,407.939,401.405,407.784,403.721z"/>
          </g>
          <g>
            <path style="fill:#263238;" d="M409.55,403.69l-1.085-0.008c0.013-1.537,0.448-37.686,10.941-43.57 c2.333-1.309,4.617-1.527,6.79-0.648c6.345,2.568,9.489,13.619,9.62,14.087l-1.047,0.28c-0.031-0.11-3.135-11.018-8.989-13.386 c-1.845-0.746-3.808-0.548-5.834,0.588C409.988,366.616,409.553,403.32,409.55,403.69z"/>
          </g>
          <g>
            <path style="fill:#263238;" d="M405.464,403.716l-1.083-0.06c0.016-0.285,1.583-28.567-6.217-38.531 c-1.89-2.414-3.941-3.565-6.109-3.416c-5.111,0.349-9.396,7.668-9.439,7.741l-0.945-0.523 c0.186-0.322,4.613-7.888,10.306-8.278c2.547-0.177,4.921,1.113,7.048,3.83C407.07,374.757,405.533,402.539,405.464,403.716z"/>
          </g>
          <g>
            <path style="fill:#263238;" d="M407.174,407.563c-0.212-2.744-5.099-67.319,3.499-78.698l0.872,0.63 c-8.36,11.065-3.34,77.319-3.289,77.987L407.174,407.563z"/>
          </g>
        </g>
        <g>
          <path style="fill: rgb(222, 131, 176);" d="M430.09,363.03c0,0-5.487,1.984-3.624,6.253c5.249,12.03,17.759,13.312,17.759,13.312 s5.87-9.094,1.059-16.157C438.649,356.701,430.23,359.886,430.09,363.03z"/>
        </g>
        <g>
          <path style="fill: rgb(222, 131, 176);" d="M406.111,357.646c0,0,5.492-0.225,5.805,4.407c0.312,4.632-11.898,17.447-11.898,17.447 s-8.714-3.083-6.842-14.642C395.047,353.299,404.746,354.797,406.111,357.646z"/>
        </g>
        <g>
          <path style="fill: rgb(222, 131, 176);" d="M408.774,330.652c0,0-2.307-0.278-3.174-2.309c-2.588-6.06,6.305-12.594,18.194-9.141 c0,0,0.315,10.238-6.083,14.277C411.313,337.517,408.774,330.652,408.774,330.652z"/>
        </g>
        <g>
          <path style="fill: rgb(222, 131, 176);" d="M396.807,337.475c0,0-0.611,2.888-3.387,3.77c-8.279,2.631-15.967-9.311-10.146-23.985 c0,0,13.558,0.687,18.214,9.209C406.145,334.991,396.807,337.475,396.807,337.475z"/>
        </g>
        <g>
          <path style="fill: rgb(222, 131, 176);" d="M388.399,362.404c0,0,1.914-2.568-0.978-2.82c-2.892-0.252-15.411,5.238-12.119,17.805 c0,0,16.103-5.14,16.661-10.401C392.521,361.726,388.399,362.404,388.399,362.404z"/>
        </g>
        <g>
          <path style="fill: rgb(222, 131, 176);" d="M422.73,335.148c0,0,0.723-2.332,3.451-3.306c2.727-0.975,12.859-0.363,12.999,12.609 c0,0-15.586,2.535-17.515-2.406C419.735,337.103,422.73,335.148,422.73,335.148z"/>
        </g>
        <g>
          <path style="fill: rgb(222, 131, 176);" d="M414.318,345.928c0,0,1.048-1.778,3.05-0.827c2.003,0.951,7.906,6.896,2.276,14.072 c0,0-10.461-6.155-9.606-10.475C410.826,344.717,414.318,345.928,414.318,345.928z"/>
        </g>
        <g>
          <path style="fill: rgb(222, 131, 176);" d="M388.688,349.057c0,0,1.511-1.937-0.702-2.177c-2.213-0.24-12.128,2.35-9.819,12.036 c0,0,12.079-0.888,12.597-4.912C391.283,349.979,388.688,349.057,388.688,349.057z"/>
        </g>
        <polygon style="fill: rgb(250, 203, 186);" points="425.789 436.826 391.141 436.826 387.403 399.704 418.338 399.704 429.527 399.704"/>
        <rect x="385.553" y="395.608" style="fill: rgb(250, 203, 186);" width="45.824" height="8.191"/>
      </g>
      <polygon style="opacity:0.3;" points="387.815,403.799 429.115,403.799 428.736,407.563 388.194,407.563 &#9;&#9;"/>
    </g>
  </g>
  <g id="Character">
    <g>
      <g>
        <path style="fill:#EEC1BB;" d="M100.787,273.541l-20.051,89.682L64.408,431.27l-8.637-2.755c0,0-4.498-23.435,1.322-49.579 c1.337-6.026,4.641-12.501,5.328-17.374c0.622-4.268-1.819-14.014-1.355-23.975c0.548-12.042-1.232-24.486,2.779-35.971 c0,0-2.955-12.899,4.805-29.091L100.787,273.541z"/>
        <g>
          <path style="fill: rgb(186, 131, 222);" d="M79.37,435.029c-7.569-1.76-11.33-3.303-12.574-6.419c-0.908-2.275,2.209-10.073,2.453-13.108 c0.047-0.577-0.382-1.07-0.932-1.084l-14.532,0.162c0,0.254,0.313,6.229,0.628,10.59c0.119,1.639-0.194,3.341-0.223,3.456 l-1.434,9.277c-0.211,0.775,0.216,1.582,0.952,1.804c0.131,0.039,0.267,0.058,0.403,0.056c3.938,0,4.811,0,9.713,0l12.296,0 C80.207,439.762,81.054,435.43,79.37,435.029z"/>
        </g>
      </g>
      <g>
        <path style="fill:#EEC1BB;" d="M112.053,272.416l-28.634,6.975c-3.29,16.751,9.55,29.039,9.55,29.039 c-0.75,11.473,2.3,26.189,5.25,37.185c2.45,9.053,4.18,11.564,4.79,15.578c0.7,4.573-0.8,11.326-0.43,17.117 c1.64,25.144,7.933,52.961,7.933,52.961l8.526-0.634l5.823-73.822L112.053,272.416z"/>
        <g>
          <path style="fill: rgb(186, 131, 222);" d="M133.253,435.029c-7.569-1.76-11.33-3.303-12.574-6.419c-0.908-2.275,1.187-10.321,1.432-13.356 c0.047-0.577-0.382-1.07-0.932-1.084l-14.593,0.248c0,0.254,1.395,6.392,1.711,10.752c0.119,1.639-0.194,3.341-0.223,3.456 l-1.434,9.277c-0.211,0.775,0.216,1.582,0.952,1.804c0.131,0.039,0.267,0.058,0.403,0.056c3.938,0,4.811,0,9.713,0l12.296,0 C134.089,439.762,134.936,435.43,133.253,435.029z"/>
        </g>
      </g>
      <g>
        <path style="fill: rgb(186, 131, 222);" d="M115.775,277.395c-1.772-6.274-3.693-15.947-5.095-21.458H73.203c0,0-11.979,8.125-12.942,32.625 c-0.396,10.055-4.021,22.804-4.49,34.018l33.452,6.472l6.568-30.123L115.775,277.395z"/>
        <polygon style="fill: rgb(186, 131, 222);" points="115.775,277.395 124.564,322.4 94.316,329.052 91.113,310.88 91.38,294.174 &#9;&#9;&#9;"/>
        <polygon style="opacity:0.3;" points="92.16,316.816 97.175,293.853 104.733,287.361 99.629,298.217 94.316,329.052 &#9;&#9;&#9;"/>
      </g>
      <g>
        <g>
          <path style="fill:#EEC1BB;" d="M116.647,224.568l3.422,19.404l17.625-6.869l4.444,6.243c0,0-19.526,20.364-30.32,17.384 c-6.122-1.69-4.867-32.194-4.867-32.194L116.647,224.568z"/>
          <path style="fill: rgb(215, 240, 255);" d="M107.076,205.04c0,0,2.033,0.673,4.003,3.079c1.969,2.406,11.534,17.128,11.534,17.128 l-15.004,7.033L107.076,205.04z"/>
          <path style="opacity:0.3;" d="M113.107,229.703c0,0,0.247-4.456,0-7.738c-0.247-3.282-1.747-6.47-1.747-6.47 s3.001,3.893,3.845,7.104c0.844,3.211,1.443,5.445,1.443,5.445L113.107,229.703z"/>
        </g>
        <path style="fill: rgb(215, 240, 255);" d="M102.889,203.629l4.187,1.411c0,0,6.031,12.901,6.031,18.238c0,5.336-2.55,34.056-2.55,34.056 l-37.59-0.715l-2.054-13.16l-2.786-17.847c0,0,5.459-10.21,3.214-19.653l2.246-1.218L102.889,203.629z"/>
        <path style="fill:#EEC1BB;" d="M137.837,243.531c3.238,3.042,9.777-1.986,9.777-1.986l4.006-2.124 c1.348-0.715,1.99-2.293,1.523-3.745l-1.252-3.639c-0.004-0.01-0.007-0.02-0.01-0.03c-0.585-1.644-2.392-2.503-4.036-1.919 l-4.106,1.476c-0.829,0.305-1.593,0.761-2.254,1.347l-5.934,5.318L137.837,243.531z"/>
        <path style="fill:#EEC1BB;" d="M144.417,231.282c0.821-0.476,4.914-1.651,6.988-2.444c2.074-0.793,4.783-1.518,5.628-1.771 c0.845-0.254,1.403,1.188,0.753,2.129c-0.65,0.941-4.656,2.24-6.089,2.885c-1.434,0.645-3.781,1.765-3.695,2.543 C148.002,234.624,143.597,231.758,144.417,231.282z"/>
      </g>
      <g>
        <path style="fill:#263238;" d="M71.388,170.316c-0.973,3.468-1.453,7.056-1.425,10.658c-0.049,4.118,1.432,7.907,0.364,11.959 c-1.248,4.727-2.732,13.158,2.94,15.793c1.479,0.587,3.095,0.739,4.657,0.44c5.525-0.7,10.676-3.122,16.166-4.042 c6.825-1.097,14.873,2.022,21.307-0.703c2.43-1.025,4.725-5.774,4.904-8.63c0.218-3.242-2.793-5.56-4.361-8.026 c-1.16-1.864-4.208-4.225-4.687-6.368c-0.066-4.364,2.188-7.264,0.268-14.663c-1.139-3.535-4.476-8.314-8.264-9.763 c-8.228-3.213-16.397,1.887-16.397,1.887C79.566,158.203,73.495,163.464,71.388,170.316z"/>
        <g>
          <g>
            <path style="fill:#EEC1BB;" d="M95.435,200.588c-1.216-1.201-1.478-2.151-1.258-3.91c0.152-1.352,0.581-2.758,1.093-4.129 l-1.814-1.951l-9.429-8.757c0.48,6.089,2.125,15.911-2.504,19.419c0,0-5.646,2.588-8.115,3.336 c1.594,1.202,16.835,17.75,25.941,16.634c8.283-1.016,4.722-16.612,3.29-18.962C100.247,201.632,97.683,200.999,95.435,200.588 z"/>
            <path style="opacity:0.2;" d="M94.2,197.464c-2.588-0.594-6.322-2.307-6.961-5.259c-0.263-1.214-0.298-2.42-0.23-3.223 l7.733,4.796C94.655,194.933,94.02,195.812,94.2,197.464z"/>
            <path style="fill:#EEC1BB;" d="M80.219,172.189c1.28,9.257,1.626,13.191,6.649,17.844c7.554,6.999,18.541,4.02,20.027-5.282 c1.337-8.373-0.981-22.104-10.288-25.589C87.438,155.727,78.938,162.932,80.219,172.189z"/>
            <path style="fill:#263238;" d="M92.085,175.332c0.016,0.872,0.524,1.608,1.136,1.644c0.611,0.036,1.093-0.643,1.077-1.515 c-0.016-0.872-0.524-1.608-1.135-1.644C92.552,173.781,92.069,174.459,92.085,175.332z"/>
            <path style="fill:#263238;" d="M90.632,172.089c0.119,0.007,0.237-0.035,0.325-0.125c1.357-1.406,2.995-1.03,3.014-1.026 c0.243,0.056,0.477-0.092,0.518-0.339c0.04-0.246-0.126-0.494-0.372-0.553c-0.086-0.02-2.141-0.493-3.825,1.252 c-0.168,0.174-0.155,0.464,0.028,0.649C90.409,172.035,90.521,172.083,90.632,172.089z"/>
            <path style="fill:#263238;" d="M104.133,169.442c0.107-0.036,0.198-0.111,0.249-0.217c0.104-0.218-0.003-0.485-0.237-0.595 c-2.358-1.109-4.177-0.109-4.254-0.065c-0.216,0.122-0.277,0.393-0.137,0.604c0.14,0.211,0.428,0.284,0.644,0.163 c0.071-0.04,1.494-0.795,3.369,0.087C103.888,169.476,104.02,169.481,104.133,169.442z"/>
            <path style="fill:#D8847C;" d="M99.05,173.871c0,0,1.615,3.413,3.356,5.506c0.304,0.366,0.152,0.927-0.286,1.112 c-1.128,0.475-2.489,0.155-2.489,0.155L99.05,173.871z"/>
            <path style="fill:#263238;" d="M92.977,173.789l2.153-0.425C95.13,173.364,93.605,174.912,92.977,173.789z"/>
            <path style="fill:#263238;" d="M101.695,174.73c0.016,0.872,0.524,1.608,1.136,1.644c0.611,0.036,1.093-0.643,1.077-1.515 c-0.016-0.872-0.524-1.609-1.135-1.644C102.162,173.179,101.68,173.857,101.695,174.73z"/>
            <path style="fill:#263238;" d="M102.587,173.187l2.153-0.425C104.74,172.762,103.215,174.31,102.587,173.187z"/>
            <path style="fill:none;stroke:#263238;stroke-width:0.5;stroke-linecap:round;stroke-linejoin:round;stroke-miterlimit:10;" d=" M98.125,184.649c-1.696,0.12-3.424-0.799-4.273-2.272"/>
          </g>
        </g>
        <g>
          <path style="fill:#263238;" d="M77.095,158.309c-1.178-1.282-2.054-2.841-2.535-4.515c1.58,1.598,3.774,2.574,6.019,2.679 c-1.839-1.701-1.975-4.87-0.39-6.811c1.585-1.94,4.594-2.475,6.819-1.324c2.225,1.151,3.566,4.418,3.256,6.904 c-0.309,2.486-1.225,6.467-6.612,6.593c-4.445,0.807-9.28-1.73-11.141-5.847C73.823,157.117,75.41,157.921,77.095,158.309z"/>
        </g>
        <path style="fill:#263238;" d="M83.204,187.219c-9.069-5.899-8.779-28.488,7.46-29.805s16.287,18.199,16.287,18.199 c-2.806-18.067-18.739-11.608-18.739-11.608c3.119,7.194-3.209,11.912-3.209,11.912C82.754,180.84,83.204,187.219,83.204,187.219 z"/>
        <path style="fill:#EEC1BB;" d="M77.756,179.895c1.186,1.856,3.025,2.971,4.68,3.305c2.489,0.503,3.577-3.511,2.623-5.938 c-0.859-2.184-3.344-3.542-5.717-2.947C77.006,174.901,76.4,177.773,77.756,179.895z"/>
        <path style="opacity:0.2;fill:none;stroke:#000000;stroke-width:0.5;stroke-linecap:round;stroke-linejoin:round;stroke-miterlimit:10;" d=" M81.143,176.613c-0.791-0.295-1.604,0.234-1.857,0.888c-0.306,0.791,0.146,2.618,2.567,3.168"/>
      </g>
      <path style="fill:none;stroke:#407BFF;stroke-width:0.25;stroke-miterlimit:10;" d="M78.321,185.425 c0.237,1.707,1.812,2.899,3.519,2.662c1.707-0.237,2.899-1.812,2.662-3.519c-0.237-1.707-1.812-2.898-3.519-2.662 C79.276,182.143,78.084,183.718,78.321,185.425z"/>
      <g>
        <g>
          <path style="fill:#E0E0E0;" d="M107.553,274.112c0,0,5.336-16.898-7.865-21.075c-8.066-2.529-10.921,0.69-10.921,0.69 l1.916,16.093c5.403,6.332,14.934,9.445,21.822,10.537C117.516,281.201,107.553,274.112,107.553,274.112z"/>
          <path style="fill:#FFFFFF;" d="M93.05,229.52c-0.489,6.083,12.041,8.842,16.103,8.056c0,0,4.349,4.972,7.405,3.238 c1.331-0.747-2.318-3.113-3.976-5.585c-1.657-2.472-8.114-3.573-9.484-6.619C100.685,223.226,93.654,222.46,93.05,229.52z"/>
          <path style="fill:#FFFFFF;" d="M83.815,230.737c-5.355,16.477-8.909,33.643-2.951,40.186 c5.958,6.543,12.923,12.654,20.27,13.612c5.317,0.68-5.345-8.621-5.345-8.621s20.117-8.497,4.838-20.337 c3.774-5.451,0.862-19.858,2.021-25.558C103.808,224.318,88.787,215.39,83.815,230.737z"/>
          <path style="fill:#263238;" d="M98.146,210.419c-0.422-1.494,3.832-1.916,6.313-4.656c1.494,2.586-2.184,8.305-2.184,8.305 S98.903,213.12,98.146,210.419z"/>
          <path style="fill:#FFFFFF;" d="M87.772,224.242c-0.124-2.95-2.74-6.064-0.881-10.739c1.774-4.295,6.205-6.87,10.815-6.284 c4.42,0.577,7.797,4.228,8.028,8.679c0.326,4.138-5.441,8.076-4.684,12.032C101.806,231.886,87.772,224.242,87.772,224.242z"/>
          <path style="fill:#E0E0E0;" d="M98.989,207.497c-1.274,1.36,3.027,3.64,5.144,3.679 C102.92,209.368,101.092,208.061,98.989,207.497z"/>
          <path style="fill:#FFFFFF;" d="M81.334,309.202H81.2c-2.529-0.048-4.694-1.676-5.958-4.454c-0.291-0.667,0.014-1.443,0.68-1.734 c0.667-0.291,1.443,0.014,1.734,0.68c0.843,1.849,2.127,2.874,3.621,2.874c1.862-0.129,3.492-1.297,4.215-3.018 c1.811-3.621,0.623-8.679-3.18-13.536c-6.907-8.832-6.888-15.327-5.652-19.159c1.159-3.64,3.726-5.91,5.614-6.466 c0.69-0.206,1.417,0.186,1.624,0.876c0.206,0.69-0.186,1.417-0.876,1.624l0,0c-1.006,0.307-2.951,1.858-3.832,4.79 c-1.044,3.267-0.958,8.832,5.221,16.764c4.435,5.661,5.748,11.764,3.458,16.285C86.722,307.344,84.187,309.08,81.334,309.202z"/>
          <path style="fill:#E0E0E0;" d="M81.325,309.202c-2.5,0-4.79-1.609-6.054-4.454c-0.215-0.692,0.171-1.428,0.863-1.643 c0.583-0.181,1.214,0.063,1.522,0.589c1.044,2.309,2.826,3.334,4.742,2.749c0.688-0.212,1.417,0.174,1.629,0.862 c0.212,0.688-0.174,1.417-0.862,1.629C82.568,309.115,81.948,309.205,81.325,309.202z"/>
          <path style="fill:#263238;" d="M91.23,210.122c0.412-1.494-3.832-1.916-6.313-4.656c-1.504,2.587,2.175,8.305,2.175,8.305 S90.473,212.823,91.23,210.122z"/>
          <path style="opacity:0.6;fill:#FFFFFF;enable-background:new    ;" d="M90.914,211.319c-0.479,0-2.472,0.843-5.499-3.832 c-0.709,2.127,2.491,6.351,2.491,6.351S90.492,213.695,90.914,211.319z"/>
          <path style="fill:#263238;" d="M99.028,209.738c0.986-0.434,2.119-0.378,3.056,0.153c0.537,0.364-0.374,1.207-0.958,1.178 C100.541,211.041,98.204,210.131,99.028,209.738z"/>
          <path style="fill:#263238;" d="M99.765,213.082c-0.955-0.051-1.885-0.32-2.721-0.786c-0.079-0.042-0.109-0.141-0.067-0.22 c0.042-0.079,0.141-0.109,0.22-0.067l0,0c2.06,1.044,3.295,0.843,3.774,0.316c0.34-0.444,0.34-1.06,0-1.504 c-0.059-0.065-0.059-0.164,0-0.23c0.069-0.049,0.165-0.032,0.214,0.037c0.003,0.003,0.005,0.007,0.007,0.011 c0.448,0.56,0.448,1.356,0,1.916C100.814,212.926,100.294,213.118,99.765,213.082z"/>
          <path style="fill:#263238;" d="M103.434,213.197c-0.809-0.172-1.565-0.537-2.203-1.063c-0.072-0.056-0.084-0.159-0.029-0.23 c0.056-0.071,0.159-0.084,0.23-0.029l0,0c0.699,0.517,1.83,1.159,2.165,0.958c0.134-0.077,0.124-0.335,0.086-0.536 c-0.016-0.083,0.038-0.164,0.121-0.18c0.004-0.001,0.009-0.002,0.013-0.002c0.076-0.021,0.156,0.024,0.177,0.1 c0.003,0.011,0.005,0.023,0.005,0.034c0.077,0.434,0,0.722-0.23,0.862C103.668,213.169,103.552,213.199,103.434,213.197z"/>
          <path style="fill:#263238;" d="M96.211,208.12c-0.68-0.546-2.347-0.067-2.404,0.709 C93.749,209.604,97.428,209.087,96.211,208.12z"/>
          <path style="fill:#263238;" d="M101.03,208.397c0.67-0.278,1.916,0.508,1.772,1.14 C102.658,210.17,99.823,208.857,101.03,208.397z"/>
          <path style="fill:#263238;" d="M99.296,211.003c0.027,0.063-0.003,0.136-0.066,0.163c-0.018,0.008-0.038,0.011-0.058,0.009 c-0.108-0.008-0.204-0.074-0.249-0.173c-0.032-0.055-0.014-0.125,0.04-0.158c0.022-0.013,0.049-0.019,0.075-0.015 C99.149,210.835,99.249,210.901,99.296,211.003z"/>
          <path style="fill:#263238;" d="M98.031,210.553c0.027,0.063-0.003,0.136-0.067,0.163c-0.018,0.008-0.038,0.011-0.058,0.009 c-0.106-0.008-0.2-0.069-0.249-0.163c-0.032-0.055-0.014-0.125,0.04-0.157c0.022-0.013,0.049-0.019,0.075-0.015 C97.882,210.394,97.98,210.456,98.031,210.553z"/>
          <path style="fill:#263238;" d="M98.539,211.482c0.032,0.055,0.014,0.125-0.04,0.158c-0.022,0.013-0.049,0.019-0.075,0.015 c-0.109-0.006-0.206-0.072-0.249-0.172c-0.032-0.055-0.014-0.125,0.04-0.158c0.022-0.013,0.049-0.019,0.075-0.015 C98.399,211.315,98.496,211.382,98.539,211.482z"/>
          <path style="fill:#263238;" d="M103.425,210.965c0.028,0.057,0.004,0.126-0.054,0.153c-0.022,0.011-0.047,0.014-0.071,0.009 c-0.106-0.008-0.2-0.069-0.249-0.163c-0.032-0.055-0.014-0.125,0.04-0.158c0.022-0.013,0.049-0.019,0.075-0.015 C103.278,210.796,103.378,210.863,103.425,210.965z"/>
          <path style="fill:#263238;" d="M102.668,211.444c0,0.086,0,0.163-0.115,0.163c-0.107-0.004-0.203-0.066-0.249-0.163 c-0.032-0.055-0.014-0.125,0.04-0.158c0.022-0.013,0.049-0.019,0.075-0.015C102.527,211.279,102.623,211.345,102.668,211.444z"/>
        </g>
        <g>
          <path style="fill:#EEC1BB;" d="M61.998,211.753c0,0-11.484,38.209-3.263,44.894c8.221,6.685,13.535-0.1,18.22-2.323 c4.398-2.087,15.391-8.88,15.391-8.88l-4.116-7.307l-18.065,5.523l6.22-24.099l-3.515-14.892 C67.833,204.89,64.013,206.956,61.998,211.753z"/>
          <g>
            <path style="fill:#EEC1BB;" d="M105.476,239.464c0.239-0.864-0.694-1.583-0.694-1.583s0.035-1.21-1.769-2.453 c-1.804-1.243-5.49-1.582-5.49-1.582s0.962-0.764,0.822-1.684c-0.141-0.919-3.168,0.454-3.168,0.454s-3.575,1.431-4.656,2.403 c-1.081,0.972-2.907,4.674-2.907,4.674l3.308,6.538c1.266-0.047,2.435-1.322,3.302-2.369c0.867-1.047,3.692-2.584,4.857-2.555 c1.165,0.029,1.991,0.235,3.238,0.726c0.979,0.385,1.088-0.1,1.09-0.326c0.046,0.071,0.207,0.143,0.731,0.088 c0.913-0.096,0.651-1.429,0.651-1.429S105.222,240.382,105.476,239.464z"/>
            <path style="opacity:0.2;fill:none;stroke:#000000;stroke-width:0.5;stroke-linecap:round;stroke-linejoin:round;stroke-miterlimit:10;" d=" M97.523,233.846c-1.786-0.005-3.609,0.13-5.536,1.863"/>
            <path style="opacity:0.2;fill:none;stroke:#000000;stroke-width:0.5;stroke-linecap:round;stroke-linejoin:round;stroke-miterlimit:10;" d=" M103.411,241.706c0,0,0.11-0.783-1.185-1.324c-0.912-0.381-2.58-1.102-4.667-0.812"/>
            <path style="opacity:0.2;fill:none;stroke:#000000;stroke-width:0.5;stroke-linecap:round;stroke-linejoin:round;stroke-miterlimit:10;" d=" M104.775,240.212c0.029-0.324-0.136-0.637-0.359-0.874c-0.34-0.36-1.149-0.823-1.443-0.962 c-1.357-0.642-2.617-0.963-4.117-1.024"/>
            <path style="opacity:0.2;fill:none;stroke:#000000;stroke-width:0.5;stroke-linecap:round;stroke-linejoin:round;stroke-miterlimit:10;" d=" M99.008,235.589c0,0,3.906,0.283,5.774,2.292"/>
          </g>
          <g>
            <path style="fill: rgb(215, 240, 255);" d="M68.933,204.92c0,0-5.164,1.279-7.41,7.487c-2.112,5.838-4.847,17.832-4.847,17.832 l16.731,8.635l3.156-20.213l-3.104-14.398L68.933,204.92z"/>
          </g>
        </g>
      </g>
      <path style="fill:#263238;" d="M86.948,227.47c-3.429,5.039,4.933,13.871,8.19,16.41c0,0-0.853,6.543,2.462,7.664 c1.437,0.508,0.805-3.832,1.571-6.706c0.766-2.874-2.29-9.283-2.223-12.616C97.035,226.397,90.914,221.617,86.948,227.47z"/>
    </g>
  </g>
</svg>