<?xml version="1.0" encoding="utf-8"?>
<svg version="1.1" xmlns="http://www.w3.org/2000/svg" x="0px" y="0px" viewBox="0 0 500 500" style="enable-background:new 0 0 500 500;">
  <g id="Background_Simple">
    <g>
      <path style="fill:#92E3A9;" d="M467.387,328.679c-20.651,41.641-57.275,84.81-101.835,93.107 c-67.329,12.543-82.621,68.543-197.481,47.885c-17.909-3.219-34.193-8.212-48.903-14.681c-7.908-3.477-15.36-7.393-22.355-11.694 c-63.524-38.96-89.966-109.633-83.707-179.068c8.218-91.324,71.761-126.923,112.688-147.273 c40.927-20.35,99.252-112.534,212.334-93.2c17.239,2.956,34.181,7.851,50.27,15.059c36.729,16.432,72.263,46.701,89.972,86.397 c1.329,2.982,2.571,6.018,3.739,9.098C504.859,194.564,495.544,271.911,467.387,328.679z"/>
      <path style="opacity: 0.9; fill: rgb(250, 217, 255);" d="M467.387,328.679c-20.651,41.641-57.275,84.81-101.835,93.107 c-67.329,12.543-82.621,68.543-197.481,47.885c-17.909-3.219-34.193-8.212-48.903-14.681c-7.908-3.477-15.36-7.393-22.355-11.694 c-63.524-38.96-89.966-109.633-83.707-179.068c8.218-91.324,71.761-126.923,112.688-147.273 c40.927-20.35,99.252-112.534,212.334-93.2c17.239,2.956,34.181,7.851,50.27,15.059c36.729,16.432,72.263,46.701,89.972,86.397 c1.329,2.982,2.571,6.018,3.739,9.098C504.859,194.564,495.544,271.911,467.387,328.679z"/>
    </g>
  </g>
  <g id="Floor">
    <g>
      <line style="fill: none; stroke: rgb(255, 255, 255); stroke-linecap: round; stroke-linejoin: round; stroke-miterlimit: 10;" x1="471.804" y1="456.478" x2="485.203" y2="456.478"/>
      <line style="fill: none; stroke: rgb(255, 255, 255); stroke-linecap: round; stroke-linejoin: round; stroke-miterlimit: 10;" x1="13.554" y1="456.478" x2="461.978" y2="456.478"/>
    </g>
  </g>
  <g id="Plants">
    <g style="opacity:0.2;">
      <path d="M330.636,55.241c2.973,3.153,11.997,6.759,12.004,6.762c0.094,0.037,0.572-6.669,0.554-7.096 c-0.214-4.938-3.53-14.353-8.866-15.821c-3.845-1.057-7.416,1.72-8.053,5.492C325.623,48.43,328.103,52.555,330.636,55.241z"/>
      <path d="M420.2,95.72c0.057,0.083,4.156-5.247,4.376-5.613c2.545-4.236,4.974-13.918,1.332-18.087 c-2.623-3.002-7.133-2.657-9.746,0.138c-2.669,2.854-2.876,7.663-2.245,11.3C414.659,87.728,420.196,95.714,420.2,95.72z"/>
      <path d="M460.675,74.697c-4.831-2.701-13.802,1.674-17.422,5.039c-0.313,0.291-4.682,5.402-4.588,5.441 c0,0,0.087,0.036,0.108,0.045c-1.422,0.679-2.938,1.425-4.578,2.272c-3.017,1.589-6.411,3.413-9.971,5.646 c-3.563,2.222-7.373,4.738-11.146,7.749c-3.786,3.013-7.615,6.376-11.111,10.352c-0.04,0.045-0.075,0.097-0.115,0.142 c0.661-1.48,2.373-5.681,2.468-6.019c1.337-4.758,1.123-14.738-3.49-17.797c-3.324-2.203-7.582-0.679-9.365,2.707 c-1.819,3.458-0.75,8.15,0.82,11.492c1.769,3.768,8.645,9.617,9.194,10.081c-3.295,3.816-6.367,8.001-9.243,12.406 c-1.646,2.517-3.227,5.103-4.779,7.716c0.531-1.298,0.996-2.463,1.043-2.633c1.337-4.758,1.122-14.738-3.49-17.796 c-3.324-2.204-7.582-0.679-9.364,2.706c-1.82,3.458-0.75,8.15,0.819,11.492c1.592,3.39,7.354,8.495,8.897,9.825 c-0.585,1.009-1.18,2.01-1.76,3.02c-2.788,4.85-5.549,9.702-8.403,14.378c-1.005,1.649-2.055,3.235-3.1,4.826 c0.47-1.154,0.857-2.129,0.9-2.284c1.337-4.759,1.123-14.738-3.491-17.797c-3.323-2.204-7.582-0.679-9.364,2.707 c-1.819,3.456-0.749,8.15,0.82,11.491c1.519,3.235,6.796,7.994,8.622,9.584c-1.12,1.596-2.237,3.198-3.394,4.695 c-0.813,1.004-1.526,2.028-2.398,2.991c-0.844,0.972-1.679,1.934-2.507,2.887c-1.661,1.777-3.363,3.62-5.027,5.312 c-1.148,1.186-2.264,2.295-3.384,3.415c1.02-1.628,2.948-4.86,3.078-5.148c1.357-2.991,2.376-8.358,1.712-12.719 c0.203-0.44,0.367-0.897,0.484-1.368c0.922-3.713-1.243-7.685-5.19-8.251c-5.479-0.786-12.279,6.521-14.447,10.963 c-0.128,0.262-1.197,3.26-1.842,5.162c0.209-1.176,0.424-2.315,0.624-3.528c0.411-2.396,0.751-4.799,1.127-7.384 c0.137-1.254,0.276-2.521,0.415-3.8c0.166-1.266,0.18-2.624,0.278-3.949c0.16-3.075,0.173-6.199,0.117-9.348 c2.099,0.355,9.571,1.508,13.162,0.584c3.575-0.919,7.873-3.085,9.379-6.69c1.474-3.53-0.063-7.784-3.88-8.942 c-5.296-1.607-13.125,4.586-15.941,8.648c-0.176,0.253-1.869,3.395-2.765,5.139c-0.049-1.893-0.088-3.781-0.2-5.693 c-0.321-5.52-0.818-11.098-1.289-16.665c-0.146-1.705-0.269-3.405-0.401-5.108c0.746,0.135,9.598,1.697,13.62,0.663 c3.575-0.919,7.874-3.084,9.38-6.69c1.474-3.53-0.064-7.784-3.88-8.942c-5.297-1.607-13.125,4.586-15.941,8.647 c-0.212,0.306-2.641,4.83-3.203,6.011c-0.286-3.748-0.538-7.487-0.635-11.182c-0.142-5.099,0-10.109,0.498-14.953 c0.347,0.063,9.578,1.736,13.698,0.677c3.575-0.919,7.874-3.084,9.379-6.69c1.475-3.53-0.064-7.785-3.879-8.942 c-5.297-1.607-13.125,4.586-15.941,8.647c-0.185,0.267-2.041,3.714-2.884,5.372c-0.166-0.051-0.136-0.041-0.302-0.092 c0.595-5.184,1.824-10.129,3.203-14.702c0.794-2.65,1.7-5.139,2.636-7.54c1.687,0.488,9.423,2.632,13.237,2.088 c3.655-0.521,8.165-2.201,10.058-5.619c1.853-3.347,0.791-7.745-2.875-9.314c-5.088-2.178-13.549,3.117-16.794,6.845 c-0.176,0.202-1.742,2.462-2.859,4.124c0.439-1.077,0.873-2.197,1.314-3.221c1.647-3.847,3.393-7.269,4.963-10.287 c0.907-1.709,1.761-3.236,2.575-4.657c1.906-0.385,9.566-2.033,12.643-4.233c3.003-2.147,6.232-5.716,6.337-9.621 c0.102-3.825-2.867-7.238-6.843-6.942c-5.52,0.412-10.589,9.01-11.751,13.814c-0.1,0.415-0.925,7.088-0.825,7.069 c0,0,0.093-0.018,0.115-0.023c-0.811,1.351-1.664,2.81-2.565,4.421c-1.639,2.989-3.465,6.383-5.203,10.21 c-1.746,3.819-3.536,8.019-5.021,12.611c-1.495,4.602-2.834,9.519-3.557,14.764c-0.008,0.059-0.009,0.122-0.017,0.181 c-0.264-1.6-1.155-6.048-1.262-6.382c-1.51-4.706-7.194-12.911-12.729-12.918c-3.988-0.005-6.699,3.616-6.318,7.424 c0.39,3.887,3.871,7.211,7.023,9.133c3.555,2.167,12.517,3.252,13.23,3.336c-0.643,5.001-0.897,10.186-0.865,15.446 c0.014,3.008,0.123,6.037,0.27,9.072c-0.273-1.376-0.528-2.604-0.582-2.772c-1.51-4.706-7.195-12.911-12.729-12.918 c-3.988-0.005-6.699,3.616-6.317,7.423c0.389,3.888,3.871,7.212,7.023,9.133c3.198,1.949,10.82,3.028,12.841,3.287 c0.069,1.164,0.124,2.327,0.197,3.49c0.351,5.583,0.725,11.153,0.924,16.627c0.071,1.93,0.07,3.832,0.077,5.736 c-0.244-1.222-0.46-2.249-0.509-2.402c-1.51-4.706-7.194-12.911-12.729-12.918c-3.988-0.004-6.699,3.617-6.317,7.424 c0.39,3.887,3.871,7.211,7.023,9.132c3.052,1.861,10.078,2.919,12.478,3.238c-0.053,1.949-0.102,3.902-0.241,5.789 c-0.124,1.286-0.154,2.533-0.35,3.818c-0.168,1.276-0.333,2.539-0.498,3.791c-0.405,2.398-0.808,4.875-1.262,7.204 c-0.303,1.622-0.622,3.163-0.939,4.716c-0.048-1.921-0.223-5.68-0.273-5.993c-0.779-4.88-5.154-13.852-10.625-14.697 c-3.941-0.608-7.17,2.56-7.369,6.381c-0.204,3.902,2.734,7.714,5.558,10.091c3.11,2.616,11.452,4.99,12.497,5.28 c-0.534,2.567-1.077,5.06-1.627,7.403c-1.87,8.052-3.732,14.695-5.109,19.351l3.451,1.47c0.029-0.107,0.056-0.202,0.086-0.312 c1.293-4.748,3.045-11.551,4.773-19.8c0.552-2.605,1.09-5.4,1.616-8.275c0.695,0.017,4.654,0.09,8.357-0.307 c1.404,3.932,6.675,10.081,7.361,10.869c-1.861,1.847-3.689,3.626-5.441,5.278c-6.002,5.684-11.22,10.197-14.936,13.321 l3.788,1.614c3.555-3.156,8.194-7.401,13.427-12.577c1.898-1.868,3.889-3.902,5.913-6.011c0.872,0.609,8.031,5.54,12.035,6.271 c3.632,0.663,8.441,0.498,11.319-2.145c2.818-2.588,3.203-7.095,0.223-9.745c-4.136-3.678-13.839-1.335-18.097,1.174 c-0.251,0.148-2.797,2.058-4.384,3.29c0.823-0.865,1.631-1.697,2.466-2.598c1.665-1.771,3.275-3.589,5.013-5.537 c0.806-0.97,1.621-1.951,2.443-2.941c0.837-0.964,1.598-2.089,2.41-3.14c1.83-2.477,3.565-5.075,5.254-7.732 c1.555,1.454,7.151,6.538,10.656,7.749c3.489,1.205,8.269,1.771,11.513-0.406c3.177-2.131,4.241-6.528,1.697-9.599 c-3.531-4.262-13.477-3.416-18.067-1.581c-0.286,0.114-3.431,1.801-5.141,2.76c1.003-1.605,2.013-3.202,2.974-4.858 c2.778-4.782,5.44-9.708,8.118-14.611c0.819-1.503,1.654-2.989,2.484-4.481c0.547,0.523,7.068,6.71,10.994,8.066 c3.489,1.206,8.269,1.771,11.514-0.405c3.177-2.131,4.241-6.528,1.696-9.598c-3.531-4.262-13.478-3.416-18.066-1.582 c-0.346,0.138-4.868,2.571-5.987,3.247c1.829-3.285,3.682-6.541,5.639-9.677c2.695-4.331,5.577-8.432,8.664-12.197 c0.254,0.245,7.031,6.733,11.052,8.122c3.489,1.205,8.269,1.771,11.514-0.406c3.177-2.131,4.241-6.528,1.697-9.598 c-3.532-4.262-13.477-3.416-18.066-1.581c-0.301,0.12-3.747,1.97-5.367,2.888c-0.111-0.134-0.09-0.11-0.201-0.244 c3.355-3.994,7.108-7.44,10.78-10.493c2.124-1.772,4.252-3.348,6.358-4.834c1.138,1.338,6.408,7.394,9.888,9.044 c3.336,1.581,8.024,2.669,11.488,0.862c3.392-1.77,4.933-6.023,2.741-9.355c-3.042-4.624-13.021-4.875-17.783-3.556 c-0.259,0.072-2.811,1.093-4.66,1.862c0.961-0.656,1.94-1.351,2.872-1.962c3.497-2.3,6.84-4.191,9.815-5.842 c1.7-0.925,3.254-1.728,4.717-2.464c1.802,0.73,9.1,3.581,12.88,3.444c3.689-0.134,8.351-1.329,10.593-4.53 C464.748,81.129,464.155,76.643,460.675,74.697z"/>
    </g>
    <g style="opacity:0.2;">
      <path d="M170.928,57.174c-2.973,3.153-11.997,6.759-12.004,6.762c-0.094,0.037-0.572-6.669-0.554-7.096 c0.214-4.938,3.53-14.353,8.866-15.821c3.844-1.057,7.416,1.72,8.053,5.492C175.941,50.364,173.461,54.488,170.928,57.174z"/>
      <path d="M81.364,97.654c-0.057,0.083-4.156-5.247-4.376-5.613c-2.545-4.236-4.974-13.918-1.332-18.087 c2.623-3.002,7.133-2.657,9.746,0.138c2.669,2.854,2.876,7.663,2.245,11.3C86.905,89.662,81.368,97.648,81.364,97.654z"/>
      <path d="M40.889,76.631c4.831-2.701,13.802,1.674,17.422,5.039c0.313,0.291,4.682,5.402,4.588,5.441c0,0-0.087,0.036-0.108,0.045 c1.422,0.679,2.938,1.425,4.578,2.272c3.017,1.589,6.411,3.413,9.971,5.646c3.563,2.222,7.373,4.738,11.146,7.749 c3.786,3.013,7.615,6.376,11.111,10.352c0.04,0.045,0.075,0.097,0.115,0.142c-0.661-1.48-2.373-5.681-2.468-6.019 c-1.337-4.758-1.123-14.738,3.49-17.797c3.324-2.203,7.583-0.679,9.365,2.707c1.82,3.458,0.75,8.15-0.819,11.492 c-1.769,3.768-8.645,9.617-9.194,10.081c3.295,3.816,6.367,8.001,9.243,12.406c1.646,2.517,3.227,5.103,4.779,7.716 c-0.531-1.298-0.996-2.463-1.043-2.633c-1.337-4.758-1.122-14.738,3.49-17.796c3.324-2.204,7.582-0.679,9.364,2.706 c1.82,3.458,0.75,8.15-0.819,11.492c-1.592,3.39-7.354,8.495-8.897,9.825c0.585,1.009,1.18,2.01,1.76,3.021 c2.788,4.85,5.549,9.702,8.403,14.378c1.005,1.649,2.055,3.235,3.1,4.826c-0.47-1.154-0.857-2.129-0.9-2.284 c-1.337-4.759-1.123-14.738,3.491-17.797c3.323-2.204,7.582-0.679,9.364,2.707c1.82,3.457,0.749,8.15-0.82,11.491 c-1.519,3.235-6.796,7.994-8.622,9.584c1.12,1.596,2.238,3.198,3.394,4.695c0.813,1.004,1.526,2.027,2.398,2.991 c0.844,0.972,1.679,1.934,2.507,2.887c1.661,1.777,3.363,3.62,5.027,5.312c1.148,1.186,2.264,2.295,3.384,3.415 c-1.02-1.628-2.948-4.86-3.078-5.148c-1.357-2.991-2.376-8.358-1.712-12.719c-0.203-0.44-0.367-0.897-0.484-1.368 c-0.922-3.713,1.243-7.685,5.19-8.251c5.479-0.786,12.279,6.521,14.447,10.963c0.128,0.262,1.197,3.26,1.842,5.162 c-0.209-1.176-0.424-2.315-0.624-3.528c-0.411-2.396-0.751-4.799-1.127-7.384c-0.137-1.254-0.276-2.521-0.415-3.8 c-0.167-1.266-0.18-2.624-0.278-3.949c-0.16-3.075-0.173-6.199-0.117-9.347c-2.099,0.355-9.571,1.508-13.163,0.584 c-3.574-0.919-7.873-3.085-9.379-6.69c-1.474-3.53,0.063-7.784,3.88-8.942c5.296-1.607,13.125,4.586,15.941,8.648 c0.176,0.253,1.869,3.395,2.765,5.139c0.049-1.893,0.088-3.781,0.2-5.693c0.321-5.521,0.818-11.098,1.289-16.665 c0.146-1.705,0.269-3.405,0.401-5.108c-0.746,0.135-9.598,1.697-13.62,0.663c-3.575-0.919-7.874-3.084-9.38-6.69 c-1.474-3.53,0.064-7.784,3.88-8.942c5.297-1.607,13.125,4.586,15.941,8.647c0.212,0.306,2.641,4.83,3.203,6.011 c0.286-3.748,0.538-7.487,0.635-11.182c0.142-5.099,0-10.109-0.498-14.953c-0.347,0.063-9.578,1.736-13.698,0.677 c-3.575-0.919-7.874-3.084-9.379-6.69c-1.475-3.53,0.064-7.785,3.88-8.942c5.297-1.607,13.125,4.586,15.941,8.647 c0.185,0.267,2.041,3.714,2.884,5.372c0.166-0.051,0.136-0.041,0.302-0.092c-0.595-5.184-1.824-10.129-3.203-14.702 c-0.794-2.65-1.7-5.139-2.636-7.54c-1.687,0.488-9.423,2.632-13.237,2.088c-3.654-0.521-8.165-2.201-10.058-5.619 c-1.853-3.347-0.791-7.745,2.875-9.314c5.088-2.178,13.549,3.117,16.794,6.845c0.176,0.202,1.742,2.462,2.86,4.124 c-0.439-1.077-0.873-2.197-1.314-3.221c-1.647-3.847-3.393-7.269-4.963-10.287c-0.907-1.709-1.761-3.236-2.575-4.657 c-1.906-0.385-9.566-2.033-12.643-4.233c-3.003-2.146-6.232-5.716-6.337-9.621c-0.102-3.825,2.867-7.238,6.843-6.942 c5.52,0.411,10.589,9.01,11.751,13.814c0.1,0.415,0.925,7.088,0.825,7.069c0,0-0.093-0.018-0.115-0.023 c0.811,1.351,1.664,2.81,2.565,4.421c1.639,2.99,3.465,6.383,5.203,10.21c1.746,3.819,3.536,8.019,5.021,12.611 c1.495,4.602,2.834,9.519,3.557,14.764c0.008,0.059,0.009,0.122,0.017,0.181c0.264-1.6,1.155-6.048,1.262-6.382 c1.51-4.706,7.194-12.911,12.729-12.918c3.988-0.005,6.699,3.616,6.318,7.424c-0.39,3.887-3.871,7.211-7.023,9.133 c-3.555,2.167-12.517,3.252-13.23,3.336c0.643,5.001,0.897,10.186,0.865,15.446c-0.014,3.008-0.123,6.037-0.27,9.072 c0.273-1.376,0.528-2.604,0.582-2.772c1.511-4.706,7.195-12.911,12.729-12.918c3.988-0.005,6.699,3.616,6.317,7.423 c-0.389,3.888-3.871,7.212-7.023,9.133c-3.198,1.949-10.82,3.028-12.841,3.287c-0.069,1.164-0.124,2.327-0.197,3.49 c-0.351,5.583-0.725,11.153-0.924,16.627c-0.071,1.93-0.07,3.832-0.077,5.736c0.244-1.222,0.46-2.249,0.509-2.402 c1.51-4.706,7.194-12.911,12.729-12.918c3.988-0.004,6.699,3.617,6.317,7.424c-0.39,3.887-3.871,7.211-7.023,9.132 c-3.052,1.861-10.078,2.92-12.478,3.238c0.053,1.949,0.102,3.902,0.241,5.789c0.124,1.286,0.154,2.533,0.35,3.818 c0.167,1.276,0.333,2.539,0.498,3.791c0.405,2.398,0.808,4.875,1.262,7.204c0.303,1.622,0.622,3.163,0.939,4.716 c0.048-1.921,0.223-5.68,0.273-5.993c0.779-4.88,5.154-13.852,10.625-14.697c3.941-0.608,7.169,2.56,7.369,6.381 c0.204,3.902-2.733,7.714-5.558,10.091c-3.11,2.616-11.452,4.99-12.497,5.28c0.534,2.567,1.076,5.06,1.627,7.403 c1.87,8.052,3.732,14.695,5.109,19.351l-3.451,1.47c-0.029-0.107-0.056-0.202-0.086-0.312c-1.293-4.748-3.045-11.551-4.773-19.8 c-0.552-2.605-1.09-5.4-1.616-8.275c-0.695,0.017-4.654,0.09-8.357-0.308c-1.404,3.932-6.675,10.081-7.361,10.869 c1.861,1.847,3.689,3.626,5.441,5.277c6.002,5.684,11.22,10.197,14.936,13.321l-3.788,1.614 c-3.555-3.156-8.194-7.401-13.427-12.577c-1.898-1.868-3.889-3.902-5.913-6.011c-0.872,0.609-8.031,5.54-12.035,6.271 c-3.632,0.663-8.442,0.498-11.319-2.145c-2.818-2.588-3.203-7.095-0.223-9.745c4.136-3.678,13.839-1.335,18.097,1.173 c0.251,0.148,2.797,2.058,4.384,3.29c-0.823-0.865-1.631-1.697-2.466-2.598c-1.665-1.771-3.274-3.589-5.013-5.537 c-0.806-0.97-1.621-1.951-2.443-2.941c-0.837-0.964-1.599-2.089-2.41-3.14c-1.83-2.477-3.565-5.075-5.254-7.732 c-1.555,1.454-7.151,6.538-10.656,7.749c-3.489,1.205-8.269,1.771-11.513-0.406c-3.177-2.131-4.241-6.528-1.697-9.599 c3.531-4.262,13.477-3.416,18.067-1.581c0.286,0.114,3.431,1.801,5.141,2.76c-1.003-1.605-2.013-3.201-2.974-4.858 c-2.778-4.781-5.44-9.708-8.118-14.611c-0.819-1.503-1.654-2.989-2.484-4.481c-0.547,0.523-7.068,6.71-10.994,8.066 c-3.489,1.206-8.269,1.771-11.514-0.405c-3.177-2.131-4.24-6.528-1.696-9.598c3.531-4.262,13.477-3.416,18.066-1.582 c0.346,0.138,4.868,2.571,5.988,3.247c-1.829-3.285-3.682-6.541-5.639-9.677c-2.695-4.331-5.577-8.432-8.664-12.197 c-0.254,0.245-7.031,6.733-11.052,8.122c-3.489,1.205-8.269,1.771-11.514-0.406c-3.177-2.131-4.241-6.528-1.697-9.598 c3.532-4.262,13.477-3.416,18.066-1.581c0.302,0.12,3.747,1.97,5.367,2.888c0.111-0.134,0.09-0.11,0.201-0.244 c-3.355-3.994-7.108-7.441-10.78-10.493c-2.124-1.772-4.252-3.348-6.358-4.834c-1.138,1.338-6.408,7.394-9.888,9.044 c-3.336,1.581-8.024,2.669-11.488,0.862c-3.392-1.77-4.932-6.023-2.741-9.355c3.042-4.624,13.021-4.875,17.783-3.556 c0.259,0.072,2.811,1.093,4.66,1.862c-0.961-0.656-1.94-1.351-2.872-1.962c-3.497-2.3-6.84-4.191-9.815-5.842 c-1.7-0.925-3.254-1.728-4.717-2.464c-1.802,0.73-9.1,3.581-12.88,3.444c-3.689-0.134-8.351-1.329-10.593-4.53 C36.816,83.062,37.409,78.577,40.889,76.631z"/>
    </g>
  </g>
  <g id="Calendar">
    <g>
      <path style="fill:none;stroke:#263238;stroke-linecap:round;stroke-linejoin:round;stroke-miterlimit:10;" d="M475.609,170.634 v4.554c0,1.176-0.95,2.126-2.126,2.126c-1.176,0-2.126-0.95-2.126-2.126v-4.554h-12.429v4.554c0,1.176-0.95,2.126-2.117,2.126 c-1.176,0-2.126-0.95-2.126-2.126v-4.554h-12.429v4.554c0,1.176-0.95,2.126-2.126,2.126c-1.176,0-2.126-0.95-2.126-2.126v-4.554 h-12.419v4.554c0,1.176-0.95,2.126-2.126,2.126c-1.176,0-2.126-0.95-2.126-2.126v-4.554h-12.429v4.554 c0,0.583-0.235,1.12-0.621,1.505c-0.386,0.386-0.922,0.621-1.505,0.621c-1.167,0-2.117-0.95-2.117-2.126v-4.554h-5.711v59.002 h82.373v-59.002H475.609z M412.553,221.12h-6.417v-6.407h6.417V221.12z M412.553,211.825h-6.417v-6.417h6.417V211.825z M412.553,202.52h-6.417v-6.407h6.417V202.52z M412.553,193.224h-6.417v-6.417h6.417V193.224z M422.817,221.12h-6.417v-6.407 h6.417V221.12z M422.817,211.825h-6.417v-6.417h6.417V211.825z M422.817,202.52h-6.417v-6.407h6.417V202.52z M422.817,193.224 h-6.417v-6.417h6.417V193.224z M433.073,221.12h-6.407v-6.407h6.407V221.12z M433.073,211.825h-6.407v-6.417h6.407V211.825z M433.073,202.52h-6.407v-6.407h6.407V202.52z M433.073,193.224h-6.407v-6.417h6.407V193.224z M443.338,221.12h-6.417v-6.407 h6.417V221.12z M443.338,211.825h-6.417v-6.417h6.417V211.825z M443.338,202.52h-6.417v-6.407h6.417V202.52z M443.338,193.224 h-6.417v-6.417h6.417V193.224z M453.602,221.12h-6.417v-6.407h6.417V221.12z M453.602,211.825h-6.417v-6.417h6.417V211.825z M453.602,202.52h-6.417v-6.407h6.417V202.52z M453.602,193.224h-6.417v-6.417h6.417V193.224z M463.867,221.12h-6.417v-6.407 h6.417V221.12z M463.867,211.825h-6.417v-6.417h6.417V211.825z M463.867,202.52h-6.417v-6.407h6.417V202.52z M463.867,193.224 h-6.417v-6.417h6.417V193.224z M474.123,221.12h-6.407v-6.407h6.407V221.12z M474.123,211.825h-6.407v-6.417h6.407V211.825z M474.123,202.52h-6.407v-6.407h6.407V202.52z M474.123,193.224h-6.407v-6.417h6.407V193.224z"/>
      <path style="fill:none;stroke:#263238;stroke-linecap:round;stroke-linejoin:round;stroke-miterlimit:10;" d="M475.609,165.845 v9.343c0,1.176-0.95,2.126-2.126,2.126c-1.176,0-2.126-0.95-2.126-2.126v-9.343c0-1.176,0.95-2.126,2.126-2.126 c0.583,0,1.12,0.235,1.505,0.621C475.374,164.725,475.609,165.252,475.609,165.845z"/>
      <path style="fill:none;stroke:#263238;stroke-linecap:round;stroke-linejoin:round;stroke-miterlimit:10;" d="M458.928,165.845 v9.343c0,1.176-0.95,2.126-2.117,2.126c-1.176,0-2.126-0.95-2.126-2.126v-9.343c0-1.176,0.95-2.126,2.126-2.126 c0.583,0,1.11,0.235,1.496,0.621C458.693,164.725,458.928,165.252,458.928,165.845z"/>
      <path style="fill:none;stroke:#263238;stroke-linecap:round;stroke-linejoin:round;stroke-miterlimit:10;" d="M442.256,165.845 v9.343c0,1.176-0.95,2.126-2.126,2.126c-1.176,0-2.126-0.95-2.126-2.126v-9.343c0-1.176,0.95-2.126,2.126-2.126 c0.593,0,1.12,0.235,1.505,0.621C442.02,164.725,442.256,165.252,442.256,165.845z"/>
      <path style="fill:none;stroke:#263238;stroke-linecap:round;stroke-linejoin:round;stroke-miterlimit:10;" d="M425.583,165.845 v9.343c0,1.176-0.95,2.126-2.126,2.126c-1.176,0-2.126-0.95-2.126-2.126v-9.343c0-1.176,0.95-2.126,2.126-2.126 c0.593,0,1.12,0.235,1.505,0.621C425.348,164.725,425.583,165.252,425.583,165.845z"/>
      <path style="fill:none;stroke:#263238;stroke-linecap:round;stroke-linejoin:round;stroke-miterlimit:10;" d="M408.902,165.845 v9.343c0,0.583-0.235,1.12-0.621,1.505c-0.386,0.386-0.922,0.621-1.505,0.621c-1.167,0-2.117-0.95-2.117-2.126v-9.343 c0-0.593,0.235-1.12,0.621-1.505c0.386-0.386,0.913-0.621,1.496-0.621C407.952,163.718,408.902,164.669,408.902,165.845z"/>
    </g>
  </g>
  <g id="Clock">
    <g>
      <circle style="fill:none;stroke:#263238;stroke-linecap:round;stroke-linejoin:round;stroke-miterlimit:10;" cx="72.323" cy="200.59" r="33.85"/>
      <ellipse transform="matrix(0.9738 -0.2273 0.2273 0.9738 -43.6943 21.685)" style="fill:none;stroke:#263238;stroke-linecap:round;stroke-linejoin:round;stroke-miterlimit:10;" cx="72.323" cy="200.59" rx="29.943" ry="29.943"/>
      <circle style="fill:#263238;stroke:#263238;stroke-linecap:round;stroke-linejoin:round;stroke-miterlimit:10;" cx="72.323" cy="200.59" r="2.86"/>
      <polyline style="fill:none;stroke:#263238;stroke-linecap:round;stroke-linejoin:round;stroke-miterlimit:10;" points="&#10;&#9;&#9;&#9;82.744,205.686 72.323,200.59 54.948,219.584 &#9;&#9;"/>
    </g>
  </g>
  <g id="Form">
    <g>
      <path style="fill:#263238;stroke:#263238;stroke-linecap:round;stroke-linejoin:round;stroke-miterlimit:10;" d="M376.862,448.335 H135.43c-3.357,0-6.079-2.722-6.079-6.079V78.928c0-3.357,2.722-6.079,6.079-6.079h241.433c3.357,0,6.079,2.722,6.079,6.079 v363.328C382.941,445.614,380.22,448.335,376.862,448.335z"/>
      <rect x="142.237" y="81.325" style="fill:#FFFFFF;stroke:#263238;stroke-linecap:round;stroke-linejoin:round;stroke-miterlimit:10;" width="227.818" height="352.554"/>
      <g>
        <g>
          <line style="fill:none;stroke:#263238;stroke-miterlimit:10;" x1="287.959" y1="172.781" x2="305.65" y2="172.781"/>
          <line style="fill:none;stroke:#263238;stroke-miterlimit:10;" x1="165.27" y1="172.781" x2="274.264" y2="172.781"/>
          <line style="fill:none;stroke:#263238;stroke-miterlimit:10;" x1="261.71" y1="186.477" x2="305.65" y2="186.477"/>
          <line style="fill:none;stroke:#263238;stroke-miterlimit:10;" x1="194.373" y1="186.477" x2="249.726" y2="186.477"/>
          <line style="fill:none;stroke:#263238;stroke-miterlimit:10;" x1="165.27" y1="186.477" x2="184.102" y2="186.477"/>
          <line style="fill:none;stroke:#263238;stroke-miterlimit:10;" x1="220.052" y1="200.172" x2="305.65" y2="200.172"/>
          <line style="fill:none;stroke:#263238;stroke-miterlimit:10;" x1="165.27" y1="200.172" x2="201.22" y2="200.172"/>
        </g>
        <ellipse transform="matrix(0.9729 -0.2312 0.2312 0.9729 -33.6083 83.9071)" style="fill:none;stroke:#263238;stroke-miterlimit:10;" cx="341.166" cy="185.335" rx="14.837" ry="14.837"/>
      </g>
      <g>
        <g>
          <line style="fill:none;stroke:#263238;stroke-miterlimit:10;" x1="182.96" y1="233.84" x2="165.27" y2="233.84"/>
          <line style="fill:none;stroke:#263238;stroke-miterlimit:10;" x1="305.65" y1="233.84" x2="196.656" y2="233.84"/>
          <line style="fill:none;stroke:#263238;stroke-miterlimit:10;" x1="209.21" y1="247.536" x2="165.27" y2="247.536"/>
          <line style="fill:none;stroke:#263238;stroke-miterlimit:10;" x1="276.547" y1="247.536" x2="221.194" y2="247.536"/>
          <line style="fill:none;stroke:#263238;stroke-miterlimit:10;" x1="305.65" y1="247.536" x2="286.818" y2="247.536"/>
          <line style="fill:none;stroke:#263238;stroke-miterlimit:10;" x1="250.867" y1="261.232" x2="165.27" y2="261.232"/>
          <line style="fill:none;stroke:#263238;stroke-miterlimit:10;" x1="305.65" y1="261.232" x2="269.699" y2="261.232"/>
        </g>
        <ellipse transform="matrix(0.9729 -0.2312 0.2312 0.9729 -47.7265 85.5618)" style="fill:none;stroke:#263238;stroke-miterlimit:10;" cx="341.166" cy="246.395" rx="14.837" ry="14.837"/>
      </g>
      <g>
        <g>
          <line style="fill:none;stroke:#263238;stroke-miterlimit:10;" x1="287.959" y1="294.9" x2="305.65" y2="294.9"/>
          <line style="fill:none;stroke:#263238;stroke-miterlimit:10;" x1="165.27" y1="294.9" x2="274.264" y2="294.9"/>
          <line style="fill:none;stroke:#263238;stroke-miterlimit:10;" x1="261.71" y1="308.595" x2="305.65" y2="308.595"/>
          <line style="fill:none;stroke:#263238;stroke-miterlimit:10;" x1="194.373" y1="308.595" x2="249.726" y2="308.595"/>
          <line style="fill:none;stroke:#263238;stroke-miterlimit:10;" x1="165.27" y1="308.595" x2="184.102" y2="308.595"/>
          <line style="fill:none;stroke:#263238;stroke-miterlimit:10;" x1="220.052" y1="322.291" x2="305.65" y2="322.291"/>
          <line style="fill:none;stroke:#263238;stroke-miterlimit:10;" x1="165.27" y1="322.291" x2="201.22" y2="322.291"/>
        </g>
        <ellipse transform="matrix(0.7071 -0.7071 0.7071 0.7071 -117.4777 331.2917)" style="fill:none;stroke:#263238;stroke-miterlimit:10;" cx="341.166" cy="307.454" rx="14.837" ry="14.837"/>
      </g>
      <g>
        <path style="fill:#263238;stroke:#263238;stroke-linecap:round;stroke-linejoin:round;stroke-miterlimit:10;" d="M275.326,43.277 c-1.069,0-1.935-0.866-1.935-1.935V30.443c0-2.278-1.847-4.125-4.125-4.125h-17.566c-2.278,0-4.125,1.847-4.125,4.125v10.899 c0,1.069-0.866,1.935-1.935,1.935h0c-1.069,0-1.935,0.866-1.935,1.935v29.523h33.557V45.212 C277.261,44.143,276.395,43.277,275.326,43.277z M260.483,42.261c-2.989,0-5.412-2.423-5.412-5.412 c0-2.989,2.423-5.412,5.412-5.412c2.989,0,5.412,2.423,5.412,5.412C265.895,39.838,263.472,42.261,260.483,42.261z"/>
        <path style="fill:#FFFFFF;stroke:#263238;stroke-linecap:round;stroke-linejoin:round;stroke-miterlimit:10;" d="M312.883,83.946 H208.082v-9.945c0-4.776,3.871-8.647,8.647-8.647h87.506c4.776,0,8.647,3.872,8.647,8.647V83.946z"/>
        <path style="fill:#263238;stroke:#263238;stroke-linecap:round;stroke-linejoin:round;stroke-miterlimit:10;" d="M210.678,68.569 h99.609c-1.804-1.971-4.39-3.215-7.273-3.215h-85.062C215.069,65.354,212.483,66.598,210.678,68.569z"/>
        <rect x="208.082" y="83.86" style="fill:#FFFFFF;stroke:#263238;stroke-linecap:round;stroke-linejoin:round;stroke-miterlimit:10;" width="104.801" height="6.111"/>
      </g>
      <polyline style="fill: none; stroke: rgb(222, 131, 176); stroke-width: 6; stroke-linecap: round; stroke-miterlimit: 10;" points="335.512,243.934 &#10;&#9;&#9;&#9;339.544,251.104 354.779,236.317 &#9;&#9;"/>
      <polyline style="fill: none; stroke: rgb(222, 131, 176); stroke-width: 6; stroke-linecap: round; stroke-miterlimit: 10;" points="335.512,182.23 &#10;&#9;&#9;&#9;339.544,189.399 354.779,174.612 &#9;&#9;"/>
      <g>
        <g>
          <line style="fill:none;stroke:#263238;stroke-miterlimit:10;" x1="287.959" y1="112.419" x2="305.65" y2="112.419"/>
          <line style="fill:none;stroke:#263238;stroke-miterlimit:10;" x1="165.27" y1="112.419" x2="274.264" y2="112.419"/>
          <line style="fill:none;stroke:#263238;stroke-miterlimit:10;" x1="261.71" y1="126.114" x2="305.65" y2="126.114"/>
          <line style="fill:none;stroke:#263238;stroke-miterlimit:10;" x1="194.373" y1="126.114" x2="249.726" y2="126.114"/>
          <line style="fill:none;stroke:#263238;stroke-miterlimit:10;" x1="165.27" y1="126.114" x2="184.102" y2="126.114"/>
          <line style="fill:none;stroke:#263238;stroke-miterlimit:10;" x1="220.052" y1="139.81" x2="305.65" y2="139.81"/>
          <line style="fill:none;stroke:#263238;stroke-miterlimit:10;" x1="165.27" y1="139.81" x2="201.22" y2="139.81"/>
        </g>
        <ellipse transform="matrix(0.7071 -0.7071 0.7071 0.7071 11.5559 277.8443)" style="fill:none;stroke:#263238;stroke-miterlimit:10;" cx="341.166" cy="124.973" rx="14.837" ry="14.837"/>
      </g>
      <polyline style="fill: none; stroke: rgb(222, 131, 176); stroke-width: 6; stroke-linecap: round; stroke-miterlimit: 10;" points="335.512,121.867 &#10;&#9;&#9;&#9;339.544,129.036 354.779,114.25 &#9;&#9;"/>
      <polyline style="fill: none; stroke: rgb(222, 131, 176); stroke-width: 6; stroke-linecap: round; stroke-miterlimit: 10;" points="333.377,302.158 &#10;&#9;&#9;&#9;337.41,309.327 352.644,294.541 &#9;&#9;"/>
    </g>
  </g>
  <g id="Character_3">
    <g>
      <g>
        <g>
          <path style="fill:#FFFFFF;stroke:#263238;stroke-linecap:round;stroke-linejoin:round;stroke-miterlimit:10;" d=" M414.915,207.674c0,0,5.405,4.574,4.989,8.593c-0.416,4.019-5.821,13.859-7.068,16.77c-1.247,2.911,1.663,9.84,1.663,9.84 l-18.017,6.098c0,0,0.416-2.217,0-3.188c-0.416-0.97-1.109-3.604-1.109-3.604s-2.772,0.97-3.603,1.247 c-0.832,0.277-3.742-1.109-3.881-2.356c-0.139-1.247-0.139-2.079-0.277-3.881c-0.139-1.802-0.416-4.989-0.693-5.544 c-0.277-0.554-3.049-2.356-2.91-3.326s3.326-4.712,3.603-5.96c0.277-1.247-0.416-4.019-0.139-5.544 c0.277-1.525,2.911-6.791,2.911-6.791s-1.663-1.386,2.91-5.128C397.868,201.16,409.371,200.052,414.915,207.674z"/>
          <path style="fill:#263238;stroke:#263238;stroke-linecap:round;stroke-linejoin:round;stroke-miterlimit:10;" d=" M414.915,207.674c-5.544-7.623-17.047-6.514-21.621-2.772c-4.574,3.742-2.91,5.128-2.91,5.128l4.158,3.188 c0,0-3.881,4.435-3.326,4.99c0.555,0.554,3.603,4.435,3.603,4.435l-0.267,1.292l-0.549-2.099c0,0-1.723,6.893-2.047,8.617 c-0.323,1.723-0.323,2.37-1.077,2.585c-0.754,0.215-3.96-1.386-3.96-1.386s-0.025,4.079-0.133,5.802 c-0.108,1.723-0.215,3.124-0.323,4.631c-0.108,1.508,2.154,3.985,4.847,3.447c2.693-0.538,4.141-1.955,4.063-3.347 c-0.078-1.392,0.891-6.239,0.461-7.208c-0.431-0.969-1.244-5.781-0.461-7.899c0,0,1.802-3.881,3.742-3.881 c1.94,0,2.217,5.267,1.663,6.514c-0.554,1.247-0.832,1.94-0.832,1.94s0,0.831,5.405,2.633c4.057,1.352,6.318,0.597,7.193,0.135 c0.034-0.515,0.121-0.988,0.291-1.383c1.247-2.91,6.652-12.751,7.068-16.77C420.32,212.248,414.915,207.674,414.915,207.674z"/>
          <path style="fill:none;stroke:#263238;stroke-linecap:round;stroke-linejoin:round;stroke-miterlimit:10;" d="M399.947,231.651 c0,0-1.247,1.94-2.356,2.356c-1.109,0.416-1.802-1.109-1.802-1.109"/>
        </g>
        <path style="fill:#263238;" d="M388.028,222.781c0,0.995,0.248,1.802,0.554,1.802c0.306,0,0.554-0.807,0.554-1.802 c0-0.995-0.248-1.802-0.554-1.802C388.276,220.979,388.028,221.786,388.028,222.781z"/>
        <path style="fill:none;stroke:#263238;stroke-linecap:round;stroke-linejoin:round;stroke-miterlimit:10;" d="M389.691,220.563 c0,0,0.277-1.802-1.94-0.97"/>
        <path style="fill:none;stroke:#FFFFFF;stroke-linecap:round;stroke-linejoin:round;stroke-miterlimit:10;" d="M388.369,235.654 c0,0,1.525-0.416,2.079-1.109"/>
      </g>
      <g>
        <polygon style="fill:#FFFFFF;stroke:#263238;stroke-linecap:round;stroke-linejoin:round;stroke-miterlimit:10;" points="&#10;&#9;&#9;&#9;&#9;337.62,271.104 368.988,271.104 376.266,295.687 344.898,295.687 &#9;&#9;&#9;"/>
        <polygon style="fill:#FFFFFF;stroke:#263238;stroke-linecap:round;stroke-linejoin:round;stroke-miterlimit:10;" points="&#10;&#9;&#9;&#9;&#9;339.848,272.522 367.599,272.522 374.038,294.27 346.287,294.27 &#9;&#9;&#9;"/>
        <rect x="345.125" y="295.943" transform="matrix(-1 -1.224647e-16 1.224647e-16 -1 728.5326 593.5511)" style="fill:#FFFFFF;stroke:#263238;stroke-linecap:round;stroke-linejoin:round;stroke-miterlimit:10;" width="38.283" height="1.664"/>
      </g>
      <g>
        <path style="fill: rgb(186, 131, 222); stroke: rgb(38, 50, 56); stroke-linecap: round; stroke-linejoin: round; stroke-miterlimit: 10;" d=" M395.519,454.907c0,0-3.379,4.728-5.659,5.972c-2.28,1.244-7.876,2.694-7.876,4.145c0,1.451,0.414,1.658,2.902,2.487 c2.487,0.829,7.047,0.829,9.534,0.829c2.487,0,5.181,0,6.011,0.207c0.829,0.207,5.389,0.622,7.461,0.622 c2.073,0,1.971-5.51,1.971-5.51L395.519,454.907z"/>
        <path style="fill:#263238;stroke:#263238;stroke-linecap:round;stroke-linejoin:round;stroke-miterlimit:10;" d="M428.869,337.46 c0,0-4.905,38.675-9.524,51.561c-4.619,12.885-2.674,16.776-5.835,29.904c-3.161,13.129-3.647,44.005-3.647,44.735 s-1.459,0-6.564-2.674c-5.106-2.674-7.78-6.078-7.78-6.078s0.243-2.674,0.729-4.619c0.486-1.945,1.459-7.051,1.459-7.051 s-1.945-16.532,0.243-43.033c2.188-26.5,3.161-57.923,3.161-57.923S418.901,339.891,428.869,337.46z"/>
      </g>
      <path style="fill: rgb(186, 131, 222); stroke: rgb(38, 50, 56); stroke-linecap: round; stroke-linejoin: round; stroke-miterlimit: 10;" d="M404.386,463.291 c0,0-3.496,3.641-5.68,4.807c-2.185,1.165-9.03,3.641-9.176,4.661c-0.146,1.02,0.583,3.059,1.02,3.204 c0.437,0.146,6.263,1.165,11.798,1.311c5.535,0.146,11.944-0.583,13.546-0.583s5.389,1.456,5.535-2.913 c0.146-4.37-2.185-10.633-2.185-10.633S411.523,465.476,404.386,463.291z"/>
      <path style="fill:#263238;stroke:#263238;stroke-linecap:round;stroke-linejoin:round;stroke-miterlimit:10;" d="M415.751,351.949 c0,0-1.771,25.014-2.656,32.539c-0.885,7.526,0.885,23.462,2.878,34.529c1.992,11.067,2.656,33.865,2.656,33.865 s1.328,0.885,0.664,2.214c-0.664,1.328-1.328,3.32-1.328,3.32s2.435,0.885,2.214,2.435c-0.221,1.549-0.885,4.427-0.885,4.427 s-1.328,0.221-5.976,0.221c-4.648,0-8.411-0.885-8.411-0.885l-1.771-0.885c0,0-0.443-3.541-0.443-5.534 c0-1.992,2.213-3.984,1.992-5.091c-0.221-1.107-1.328-7.304-2.213-12.395c-0.885-5.091-0.221-8.19-1.771-13.502 c-1.549-5.312-10.182-36.964-10.182-36.964s-3.984-36.745-4.205-41.836c-0.221-5.091-0.221-7.304-0.221-7.304 s6.862-5.533,8.411-5.533C396.052,335.57,415.751,351.949,415.751,351.949z"/>
      <g>
        <path style="fill: rgb(186, 131, 222); stroke: rgb(38, 50, 56); stroke-linecap: round; stroke-linejoin: round; stroke-miterlimit: 10;" d=" M385.436,337.318c0,0-0.759,5.567,0,6.706c0.759,1.139,7.339,2.91,15.564,3.796c8.225,0.886,18.727,0,22.27-1.265 c3.543-1.265,5.82-2.404,6.327-3.29c0.506-0.886,0.126-5.567,0.126-5.567S396.951,339.595,385.436,337.318z"/>
        <path style="fill: rgb(186, 131, 222); stroke: rgb(38, 50, 56); stroke-linecap: round; stroke-linejoin: round; stroke-miterlimit: 10;" d=" M417.409,246.203c0,0,11.643,7.78,13.806,20.14c1.928,11.02-1.194,49.85-1.194,51.928c0,2.079,1.599,18.919,1.599,18.919 c1.645,3.543-11.838,6.777-19.233,7.465c-6.541,0.609-20.965-0.844-25.123-2.899c-1.316-0.65-2.578-1.353-2.61-2.82 c-0.147-6.785-0.493-24.902-0.044-27.596c0.554-3.326-0.048-22.728-0.048-29.381s-2.495-16.77-0.277-21.066 c2.217-4.296,7.9-7.207,7.9-7.207S402.58,245.094,417.409,246.203z"/>
        <g>
          <path style="fill:none;stroke:#263238;stroke-linecap:round;stroke-linejoin:round;stroke-miterlimit:10;" d="M417.515,285.517 c-1.167,2.169-2.231,3.943-2.995,4.816"/>
          <path style="fill:none;stroke:#263238;stroke-linecap:round;stroke-linejoin:round;stroke-miterlimit:10;" d="M425.435,268.94 c0,0-2.667,6.075-5.498,11.838"/>
          <line style="fill:none;stroke:#263238;stroke-linecap:round;stroke-linejoin:round;stroke-miterlimit:10;" x1="419.978" y1="288.151" x2="414.084" y2="296.009"/>
        </g>
      </g>
      <path style="fill: rgb(186, 131, 222); stroke: rgb(38, 50, 56); stroke-linecap: round; stroke-linejoin: round; stroke-miterlimit: 10;" d="M417.548,240.521 l2.633,6.652c0,0-5.544,0.277-10.672,0.97c-5.128,0.693-17.324,5.544-17.324,5.544s1.247-4.989,2.217-5.96 c0.97-0.97,4.574-4.574,11.503-6.098C412.836,240.105,417.548,240.521,417.548,240.521z"/>
      <g>
        <path style="fill:#FFFFFF;stroke:#263238;stroke-linecap:round;stroke-linejoin:round;stroke-miterlimit:10;" d=" M397.491,303.625c0,0-0.887,10.47-2.039,10.983c-1.152,0.512-29.714-9.446-31.762-10.47c-2.049-1.024-3.201-0.896-3.585-1.024 c-0.384-0.128-3.841-0.128-5.121-0.768c-1.28-0.64-2.561-2.305-2.945-2.561c-0.384-0.256-3.457-0.384-4.353-1.024 c-0.896-0.64-2.049-1.152-1.28-1.536c0.768-0.384,4.609-1.152,4.609-1.152s0.128-1.793,1.664-2.049 c1.536-0.256,1.024,0.384,4.737-1.793c3.713-2.176,3.329-0.384,6.53,1.921c3.201,2.305,4.737,4.865,5.121,4.993 c0.384,0.128,12.035,4.481,12.035,4.481H397.491z"/>
        <line style="fill:#FFFFFF;stroke:#263238;stroke-linecap:round;stroke-linejoin:round;stroke-miterlimit:10;" x1="351.015" y1="296.071" x2="357.288" y2="295.303"/>
      </g>
      <path style="fill: rgb(186, 131, 222); stroke: rgb(38, 50, 56); stroke-linecap: round; stroke-linejoin: round; stroke-miterlimit: 10;" d="M372.022,300.164 c0,0-1.766-1.522-2.955-1.02c-1.189,0.502-2.916,2.746-3.088,5.509c-0.173,2.763,4.316,3.108,4.316,3.108L372.022,300.164z"/>
      <path style="fill: rgb(186, 131, 222); stroke: rgb(38, 50, 56); stroke-linecap: round; stroke-linejoin: round; stroke-miterlimit: 10;" d="M395.613,254.941 c-2.308,0-8.393,1.678-10.281,3.777c-1.888,2.098-2.098,8.183-1.469,16.366c0.628,8.164,3.834,23.501,3.849,23.574 c-0.036-0.173-0.396,0.811-0.496,0.988c-0.42,0.749,0.65,0.875-0.345,1.036c-0.354,0.057-2.281,0.257-2.632,0.197 c-1.466-0.251-2.932-0.499-4.398-0.744c-2.373-0.396-6.471-0.942-8.888-0.942c-0.934,0-3.394,7.52-1.992,9.155 c1.402,1.636,29.199,12.435,31.069,11.967c1.869-0.467,5.442-25.035,5.387-25.15c0.546-6.734,1.199-14.637,1.317-15.465"/>
      <g>
        <path style="fill:none;stroke:#263238;stroke-linecap:round;stroke-linejoin:round;stroke-miterlimit:10;" d="M386.871,300.682 c0,0,3.108,3.28,5.87,5.352"/>
        <path style="fill:none;stroke:#263238;stroke-linecap:round;stroke-linejoin:round;stroke-miterlimit:10;" d="M389.461,305.517 c0,0,2.417,2.245,4.144,2.935"/>
      </g>
    </g>
  </g>
  <g id="Character_2">
    <g>
      <g>
        <path style="fill:#FFFFFF;stroke:#263238;stroke-linecap:round;stroke-linejoin:round;stroke-miterlimit:10;" d="M285.76,237.591 c-0.573-3.435-2.863-5.726-3.435-7.825c-0.572-2.099-1.908-4.581-1.908-4.581s-3.365,6.822-4.474,12.503l-0.505-1.185 l-9.482,7.437l-0.558,16.547l15.377,0.725c0,0-0.63-2.739-0.842-4.773c-0.212-2.037,0.08-5.258,0.348-6.011 c0,0,4.344,0.098,4.726-1.429C285.39,247.472,286.332,241.026,285.76,237.591z"/>
        <path style="fill:#FFFFFF;stroke:#263238;stroke-linecap:round;stroke-linejoin:round;stroke-miterlimit:10;" d=" M283.285,231.504c0,0,1.232,0.448,1.792,0.448c0.56,0,1.568,0.112,1.232,1.456c-0.336,1.344-1.12,1.792-1.12,1.792 L283.285,231.504z"/>
      </g>
      <path style="fill:#FFFFFF;stroke:#263238;stroke-linecap:round;stroke-linejoin:round;stroke-miterlimit:10;" d="M278.718,422.724 c0,0-2.101,35.737-2.101,36.303s-2.643,9.44-2.265,10.761c0.377,1.322,3.398,1.699,5.475,1.888 c2.077,0.189,6.419,0.755,8.118,0.755c1.699,0,7.741-0.378,8.873-0.755c1.133-0.378,2.643-1.51,1.322-2.454 c-1.322-0.944-4.531-1.322-8.307-5.664c-3.776-4.342-4.72-6.23-4.72-6.23l7.954-34.227L278.718,422.724z"/>
      <path style="fill:#FFFFFF;stroke:#263238;stroke-linecap:round;stroke-linejoin:round;stroke-miterlimit:10;" d="M225.667,416.116 c0,0-14.706,36.592-15.839,38.103c-1.133,1.51-8.765,11.158-8.954,13.046c-0.189,1.888,9.58,2.068,11.279,0.935 c1.699-1.133,3.716-10.96,4.849-13.037c1.133-2.077,26.223-36.404,26.223-36.404L225.667,416.116z"/>
      <g>
        <path style="fill:#8F8F8F;stroke:#263238;stroke-linecap:round;stroke-linejoin:round;stroke-miterlimit:10;" d=" M250.436,309.716l-0.279,6.142c0,0-7.652,16.521-15.109,37.037c-8.119,22.336-18.674,60.963-18.674,60.963 s6.98,6.422,25.966,9.493c18.986,3.071,30.799,4.372,41.124,4.059c12.482-0.378,28.397-3.78,28.397-3.78 s-8.934-54.724-16.194-79.573c-7.259-24.849-8.986-27.319-8.986-27.319l-2.474-13.853L250.436,309.716z"/>
        <g>
          <line style="fill:none;stroke:#263238;stroke-linecap:round;stroke-linejoin:round;stroke-miterlimit:10;" x1="262.287" y1="351.999" x2="260.208" y2="425.306"/>
          <line style="fill:none;stroke:#263238;stroke-linecap:round;stroke-linejoin:round;stroke-miterlimit:10;" x1="262.441" y1="346.571" x2="262.359" y2="349.453"/>
          <path style="fill:none;stroke:#263238;stroke-linecap:round;stroke-linejoin:round;stroke-miterlimit:10;" d="M278.295,317.291 c1.167-0.244,2.31-0.533,3.412-0.874"/>
          <path style="fill:none;stroke:#263238;stroke-linecap:round;stroke-linejoin:round;stroke-miterlimit:10;" d="M253.507,317.813 c0,0,10.372,1.406,20.514,0.174"/>
        </g>
      </g>
      <g>
        <path style="fill:#FFFFFF;stroke:#263238;stroke-linecap:round;stroke-linejoin:round;stroke-miterlimit:10;" d=" M320.007,237.504c0,0-0.82-3.692-0.957-6.153c-0.137-2.461-2.461-5.743-2.188-7.11c0.273-1.367,1.641-1.231,2.324-0.82 c0.684,0.41,1.504,1.777,1.504,1.777s1.914-5.88,1.914-8.477c0-2.598,1.641-2.324,2.324-0.547 c0.684,1.778-0.273,8.614-0.273,8.614s2.598,0.684,3.828,1.23c1.231,0.547,3.555,1.641,3.145,5.059 c-0.41,3.418-0.82,5.333-1.641,5.333s-1.504-1.094-1.504-1.094s0,3.692-1.231,4.786c-1.231,1.094-3.692,1.23-3.692,1.23 S323.836,238.598,320.007,237.504z"/>
        <path style="fill:none;stroke:#263238;stroke-linecap:round;stroke-linejoin:round;stroke-miterlimit:10;" d="M328.485,235.316 c0,0,0.82-3.145,0.82-3.555"/>
        <line style="fill:none;stroke:#263238;stroke-linecap:round;stroke-linejoin:round;stroke-miterlimit:10;" x1="320.691" y1="225.198" x2="319.871" y2="229.027"/>
      </g>
      <path style="fill: rgb(186, 131, 222); stroke: rgb(38, 50, 56); stroke-linecap: round; stroke-linejoin: round; stroke-miterlimit: 10;" d="M316.608,241.33 l2.576-4.359c0,0,0.991-1.387,3.369-0.594c0.024,0.008,0.047,0.016,0.071,0.024c2.158,0.729,3.353,3.038,2.766,5.239l-0.657,2.465 C324.732,244.104,319.58,241.132,316.608,241.33z"/>
      <g>
        <path style="fill:#FFFFFF;stroke:#263238;stroke-linecap:round;stroke-linejoin:round;stroke-miterlimit:10;" d=" M209.105,328.724c0,0,0.622,3.266,0.933,5.599c0.311,2.333,1.866,6.999,2.955,7.621c1.089,0.622,2.488,1.4,0.933,1.866 c-1.555,0.467-2.488,0.622-3.888-0.467c-1.4-1.089-2.333-2.333-2.333-2.333s-1.089,4.822-1.866,7.155 c-0.778,2.333-3.111,6.066-3.111,6.066s-0.076,1.246-1.009,1.712c-0.933,0.467-1.598-1.39-1.598-1.39s-1.251,2.919-2.059-0.167 c-0.317-1.213-1.4-9.332-1.244-10.887c0.156-1.555,6.445-15.971,6.445-15.971L209.105,328.724z"/>
        <path style="fill:none;stroke:#263238;stroke-linecap:round;stroke-linejoin:round;stroke-miterlimit:10;" d="M200.267,345.834 c-0.494,0.905-0.961,2.047-0.961,2.487c0,0.622,0.814,6.233,0.814,6.233"/>
        <polyline style="fill:none;stroke:#263238;stroke-linecap:round;stroke-linejoin:round;stroke-miterlimit:10;" points="&#10;&#9;&#9;&#9;&#9;202.728,354.232 201.927,348.786 203.35,345.211 &#9;&#9;&#9;"/>
        <path style="fill:none;stroke:#263238;stroke-linecap:round;stroke-linejoin:round;stroke-miterlimit:10;" d="M203.816,352.365 c0,0,0.064-2.931,0.265-4.274c0.202-1.344,0.541-1.1,0.979-2.725"/>
        <path style="fill:none;stroke:#263238;stroke-linecap:round;stroke-linejoin:round;stroke-miterlimit:10;" d="M205.372,338.056 c0,0-0.156,1.4-1.244,2.488c-1.089,1.089-3.266,2.644-3.266,2.644"/>
      </g>
      <path style="fill: rgb(186, 131, 222); stroke: rgb(38, 50, 56); stroke-linecap: round; stroke-linejoin: round; stroke-miterlimit: 10;" d="M247.055,262.533 c0,0-12.682,6.143-13.475,7.728c-0.793,1.585-16.645,29.922-18.825,32.696c-2.18,2.774-8.917,6.341-9.71,9.115 c-0.793,2.774-0.198,10.304-0.198,10.304l-1.585,5.152c0,0,0.198,1.783,2.972,2.378c2.774,0.594,2.774,0.594,2.774,0.594 l4.756-4.558c0,0,10.304-2.576,14.465-7.53c4.161-4.954,14.267-28.138,14.267-28.138l-1.585,15.654c0,0,10.304,1.585,22.59,0.595 c12.286-0.991,25.76-2.972,25.76-2.972l-1.783-18.23c0,0,29.327-4.756,30.912-6.143c1.585-1.387,2.972-5.152,3.171-6.539 c0.198-1.387,5.152-27.94,5.152-27.94s-1.783-2.972-5.945-3.765c-4.161-0.793-8.323,1.387-8.521,2.576 c-0.198,1.189-8.719,18.428-8.719,18.428s-0.594-0.396-2.774,0.595c-2.18,0.991-6.018-0.559-6.018-0.559 s-7.654-2.215-12.014-1.819c-4.359,0.396-8.521,0.991-8.521,0.991s-7.728-3.567-13.475-1.982 C254.981,260.75,247.055,262.533,247.055,262.533z"/>
      <polyline style="fill:none;stroke:#263238;stroke-linecap:round;stroke-linejoin:round;stroke-miterlimit:10;" points="&#10;&#9;&#9;&#9;274.401,287.104 287.479,285.321 278.76,289.878 &#9;&#9;"/>
      <polyline style="fill:none;stroke:#263238;stroke-linecap:round;stroke-linejoin:round;stroke-miterlimit:10;" points="&#10;&#9;&#9;&#9;242.696,281.358 242.498,290.275 239.525,286.51 &#9;&#9;"/>
      <path style="fill:none;stroke:#263238;stroke-linecap:round;stroke-linejoin:round;stroke-miterlimit:10;" d="M206.631,323.168 c0,0,0.594,1.982,5.35,1.982"/>
      <g>
        <path style="fill:#263238;stroke:#263238;stroke-linecap:round;stroke-linejoin:round;stroke-miterlimit:10;" d=" M257.798,246.615c6.507,5.02,11.981,1.988,14.327-0.358c2.856-2.856,2.833-6.599,4.691-10.165 c0.247-1.308,4.554-5.858,4.887-6.939c0.763-2.481-0.715-6.831-0.715-6.831s4.199,0.572,2.29-3.626 c-1.909-4.199-3.626-5.725-7.634-6.107c-4.008-0.382-6.298,2.863-6.298,2.863s-4.771-2.29-8.016-0.573 c-3.245,1.718-7.949,0.035-11.783,11.635c-0.344,1.039-1.111,2.836-1.173,4.105c-0.165,3.366,1.76,5.775,3.677,8.547 C255.003,243.436,253.709,243.461,257.798,246.615z"/>
        <path style="fill:#FFFFFF;stroke:#263238;stroke-linecap:round;stroke-linejoin:round;stroke-miterlimit:10;" d=" M265.584,241.151c0,2.67-2.164,4.834-4.834,4.834c-2.67,0-4.834-2.164-4.834-4.834c0-2.67,2.164-4.834,4.834-4.834 C263.42,236.317,265.584,238.482,265.584,241.151z"/>
        <path style="fill:#263238;stroke:#263238;stroke-linecap:round;stroke-linejoin:round;stroke-miterlimit:10;" d=" M251.934,250.074c0.034,3.003,0.033,5.947-2.68,7.982c-2.975,2.231-14.503,10.797-8.182,19.535 c6.321,8.738,7.222,6.32,6.664,9.295s-12.828,11.155-10.597,18.406c2.231,7.251,11.341,11.341,10.04,14.13 c-1.301,2.789,2.789,16.547,18.592,9.296c15.803-7.251,14.707-19.737,8.366-33.837c-1.465-3.257-0.777-7.424,5.172-14.117 c5.949-6.693,1.467-19.552-4.8-26.041c-3.698-3.829-5.206-6.879-5.02-7.623c0.186-0.744-5.763-9.482-10.783-6.879 c-3.117,1.616-6.036,4.707-6.667,8.339C251.954,249.043,251.928,249.551,251.934,250.074z"/>
        <path style="fill:#FFFFFF;stroke:#263238;stroke-linecap:round;stroke-linejoin:round;stroke-miterlimit:10;" d=" M276.817,236.093c0,0-1.955-2.737-3.323,0.195c-1.368,2.932,0.293,5.864,1.661,6.939c1.368,1.075,2.346-2.834,2.346-2.834"/>
      </g>
      <path style="fill: rgb(186, 131, 222); stroke: rgb(38, 50, 56); stroke-linecap: round; stroke-linejoin: round; stroke-miterlimit: 10;" d="M296.817,471.677 c1.133-0.378,2.643-1.51,1.322-2.454c-1.322-0.944-4.531-1.322-8.307-5.664l-0.2,3.38c0,0-8.48-0.347-14.548-1.757 c-0.501,2.09-0.894,4.041-0.733,4.607c0.377,1.322,3.398,1.699,5.475,1.888c2.077,0.189,6.419,0.755,8.118,0.755 C289.643,472.432,295.684,472.054,296.817,471.677z"/>
      <path style="fill: rgb(186, 131, 222); stroke: rgb(38, 50, 56); stroke-linecap: round; stroke-linejoin: round; stroke-miterlimit: 10;" d="M212.153,468.2 c0.702-0.468,1.458-2.426,2.184-4.703c-4.121,0.277-8.226-0.647-10.491-1.293c-1.593,2.255-2.896,4.297-2.972,5.062 C200.685,469.153,210.454,469.333,212.153,468.2z"/>
    </g>
  </g>
  <g id="Character_1">
    <g>
      <g>
        <rect x="72.584" y="375.791" style="fill:#263238;stroke:#263238;stroke-linecap:round;stroke-linejoin:round;stroke-miterlimit:10;" width="8.39" height="14.892"/>
        <path style="fill:#949494;stroke:#263238;stroke-linecap:round;stroke-linejoin:round;stroke-miterlimit:10;" d="M81.396,380.32 H70.869c-8.633,0-15.632-6.999-15.632-15.632V332.02c0-8.633,6.999-15.632,15.632-15.632h10.527 c8.633,0,15.632,6.999,15.632,15.632v32.668C97.029,373.322,90.03,380.32,81.396,380.32z"/>
        <g>
          <path style="fill: rgb(255, 255, 255); stroke: rgb(38, 50, 56); stroke-linecap: round; stroke-linejoin: round; stroke-miterlimit: 10;" d=" M63.606,468.724c0-1.96-1.589-3.549-3.549-3.549s-3.549,1.589-3.549,3.549c0,1.96,1.589,3.549,3.549,3.549 S63.606,470.684,63.606,468.724z"/>
          <path style="fill: rgb(255, 255, 255); stroke: rgb(38, 50, 56); stroke-linecap: round; stroke-linejoin: round; stroke-miterlimit: 10;" d=" M132.942,468.724c0-1.96-1.589-3.549-3.549-3.549c-1.96,0-3.549,1.589-3.549,3.549c0,1.96,1.589,3.549,3.549,3.549 C131.353,472.273,132.942,470.684,132.942,468.724z"/>
          <path style="fill: rgb(255, 255, 255); stroke: rgb(38, 50, 56); stroke-linecap: round; stroke-linejoin: round; stroke-miterlimit: 10;" d=" M96.449,468.724c0-1.96-0.738-3.549-1.649-3.549c-0.911,0-1.649,1.589-1.649,3.549c0,1.96,0.738,3.549,1.649,3.549 C95.711,472.273,96.449,470.684,96.449,468.724z"/>
          <polygon style="fill: rgb(255, 255, 255); stroke: rgb(38, 50, 56); stroke-linecap: round; stroke-linejoin: round; stroke-miterlimit: 10;" points="&#10;&#9;&#9;&#9;&#9;&#9;98.03,449.463 98.03,398.589 91.064,398.589 91.064,449.671 56.686,463.269 56.686,466.687 61.681,466.687 61.681,463.795 &#10;&#9;&#9;&#9;&#9;&#9;94.81,456.958 127.939,463.795 127.939,466.687 132.934,466.687 132.934,463.269 &#9;&#9;&#9;&#9;"/>
          <polygon style="fill: rgb(255, 255, 255); stroke: rgb(38, 50, 56); stroke-linecap: round; stroke-linejoin: round; stroke-miterlimit: 10;" points="&#10;&#9;&#9;&#9;&#9;&#9;93.058,466.677 96.542,466.677 97.289,450.162 92.311,450.162 &#9;&#9;&#9;&#9;"/>
        </g>
        <rect x="85.681" y="396.65" style="fill: rgb(255, 255, 255); stroke: rgb(38, 50, 56); stroke-linecap: round; stroke-linejoin: round; stroke-miterlimit: 10;" width="17.713" height="10.517"/>
        <path style="fill:#949494;stroke:#263238;stroke-linecap:round;stroke-linejoin:round;stroke-miterlimit:10;" d=" M119.623,400.524H67.792c-3.265,0-5.912-2.647-5.912-5.912v-1.737c0-3.265,2.647-5.912,5.912-5.912h51.831 c3.265,0,5.912,2.647,5.912,5.912v1.737C125.535,397.877,122.888,400.524,119.623,400.524z"/>
      </g>
      <g>
        <g>
          <g>
            <path style="fill:#FFFFFF;stroke:#263238;stroke-linecap:round;stroke-linejoin:round;stroke-miterlimit:10;" d=" M169.867,418.41l5.286,7.832l6.265-0.392c0,0,9.184,0.116,10.751-0.276c1.566-0.391,2.154,0.979,1.37,2.545 c-0.783,1.566-7.604,6.454-11.128,8.608c-3.524,2.154-11.174,5.569-12.153,5.764c-0.979,0.196-2.154-1.762-4.307-7.832 c-2.154-6.07-6.07-12.139-6.07-12.139L169.867,418.41z"/>
            <g>
              <path style="fill:#FFFFFF;stroke:#263238;stroke-linecap:round;stroke-linejoin:round;stroke-miterlimit:10;" d=" M193.539,428.12c0.783-1.566,0.196-2.937-1.37-2.545c-1.566,0.392-10.751,0.276-10.751,0.276l-6.265,0.392 c0.196,3.524,0.979,5.286,0.979,5.286s-8.811,2.154-10.181,3.133c2.154,6.069,3.328,8.027,4.307,7.832 c0.979-0.196,8.629-3.611,12.153-5.764C185.936,434.574,192.756,429.686,193.539,428.12z"/>
            </g>
            <path style="fill: rgb(186, 131, 222); stroke: rgb(38, 50, 56); stroke-linecap: round; stroke-linejoin: round; stroke-miterlimit: 10;" d=" M193.268,425.656c-1.288,1.361-3.46,3.271-7.125,5.682c-6.005,3.951-14.293,7.537-17.896,9.021 c0.831,1.653,1.454,2.246,2.012,2.134c0.979-0.196,8.629-3.611,12.153-5.764c3.524-2.154,10.345-7.042,11.128-8.608 C194.094,427.01,193.95,426.012,193.268,425.656z"/>
          </g>
          <path style="fill: rgb(186, 131, 222); stroke: rgb(38, 50, 56); stroke-linecap: round; stroke-linejoin: round; stroke-miterlimit: 10;" d=" M156.157,356.272c0.735-1.636,6.586,19.764,11.277,40.183c3.164,13.772,5.938,22.033,5.938,22.033s-4.484,3.838-7.225,5.209 c-2.741,1.37-7.44,3.133-7.44,3.133s-7-15.22-10.916-22.856c-3.916-7.636-5.012-12.743-8.145-18.422 c-3.133-5.678-3.927-15.903-3.927-15.903s-1.958-9.789,5.482-12.335C148.641,354.769,154.004,353.53,156.157,356.272z"/>
          <g>
            <path style="fill:#FFFFFF;stroke:#263238;stroke-linecap:round;stroke-linejoin:round;stroke-miterlimit:10;" d=" M135.457,438.636c0,0-1.352,8.393-2.265,11.455c-0.913,3.062-3.436,8.633-2.643,10.02c0.794,1.387,4.97,2.804,7.102,2.98 c2.132,0.176,4.858,3.662,8.826,5.104c3.968,1.442,9.202,1.048,9.081,0.006c-0.12-1.042-11.738-13.848-12.308-16.949 c-0.57-3.102,1.471-12.841,1.471-12.841L135.457,438.636z"/>
            <g>
              <path style="fill:#FFFFFF;stroke:#263238;stroke-linecap:round;stroke-linejoin:round;stroke-miterlimit:10;" d=" M141.801,453.318c-0.32,0.882-0.32,0.882-0.32,0.882s-5.374-0.595-9.063-1.824c-1.08,3.003-2.49,6.649-1.868,7.734 c0.794,1.387,4.97,2.804,7.102,2.98c2.132,0.176,4.858,3.662,8.826,5.104c3.968,1.442,9.202,1.048,9.081,0.006 c-0.12-1.042-11.738-13.848-12.308-16.949C143.251,451.25,142.121,452.436,141.801,453.318z"/>
              <path style="fill: rgb(186, 131, 222); stroke: rgb(38, 50, 56); stroke-linecap: round; stroke-linejoin: round; stroke-miterlimit: 10;" d=" M146.237,466.11c-3.135-1.538-5.973-4.166-10.149-5.584c-2.721-0.924-4.609-1.672-5.599-2.082 c-0.13,0.74-0.134,1.328,0.06,1.667c0.794,1.387,4.97,2.804,7.102,2.98c2.132,0.176,4.858,3.662,8.826,5.104 c3.783,1.375,8.706,1.079,9.053,0.145C152.917,467.952,148.393,467.168,146.237,466.11z"/>
            </g>
          </g>
          <path style="fill: rgb(186, 131, 222); stroke: rgb(38, 50, 56); stroke-linecap: round; stroke-linejoin: round; stroke-miterlimit: 10;" d=" M133.381,375.567c0,0,15.467,1.762,16.642,9.594c1.175,7.832-1.566,56.583-1.566,56.583s-3.72,0.196-6.853-0.392 c-3.133-0.587-8.419-1.762-8.419-1.762s-0.783-16.642-1.762-23.299c-0.979-6.657-1.762-26.04-1.762-26.04 s-25.844-2.154-28.194-3.72C99.118,384.965,133.381,375.567,133.381,375.567z"/>
          <g>
            <path style="fill: rgb(186, 131, 222); stroke: rgb(38, 50, 56); stroke-linecap: round; stroke-linejoin: round; stroke-miterlimit: 10;" d=" M153.732,370.041c0,0-38.168,15.12-46.979,18.056c-8.81,2.937-18.404,2.154-24.474,0.196c-6.07-1.958-9.047-9.751-9.047-9.751 s-1.526-1.801-0.743-3.563c0.783-1.762,13.314-12.922,20.95-14.88c7.636-1.958,21.447-1.102,21.447-1.102 s33.363-8.535,37.475-7.948c4.112,0.587,7.379,15.219,7.966,17.177"/>
            <path style="fill:none;stroke:#263238;stroke-linecap:round;stroke-linejoin:round;stroke-miterlimit:10;" d="M82.084,380.07 c0,0,2.741-10.768,9.985-15.272"/>
            <path style="fill:none;stroke:#263238;stroke-linecap:round;stroke-linejoin:round;stroke-miterlimit:10;" d="M80.518,372.826 c0,0,2.937-4.503,6.853-5.482"/>
          </g>
          <g>
            <path style="fill:#FFFFFF;stroke:#263238;stroke-linecap:round;stroke-linejoin:round;stroke-miterlimit:10;" d=" M111.097,300.564c0,0,2.706,2.932,5.863,10.599c3.157,7.667,8.279,30.879,8.279,30.879s-2.594,1.079-4.624,1.079 s-4.729,0.274-5.857-1.079c-1.128-1.353-4.338-11.936-4.338-11.936s-1.578-12.854-2.03-19.394 c-0.451-6.54-2.481-7.893-0.451-9.922C109.969,298.76,111.097,300.564,111.097,300.564z"/>
            <path style="fill:#FFFFFF;stroke:#263238;stroke-linecap:round;stroke-linejoin:round;stroke-miterlimit:10;" d=" M103.359,295.948c0,0,5.816,1.412,7.738,4.616c1.923,3.204,1.066,10.532,1.066,10.532s5.127,14.899,4.165,18.424 c-0.961,3.525-4.806,8.651-4.806,8.651s0.32,11.535,1.282,13.778c0.961,2.243,2.083,7.049,2.083,7.049 s-2.724,1.923-11.695,3.204c-8.971,1.282-16.341,1.923-19.385,4.326c-3.044,2.403-9.773,11.535-10.574,12.016 c-0.801,0.481-1.447-1.313-2.088-2.595c-0.641-1.282-0.485-5.139,0.957-10.907c1.442-5.768,2.201-22.515,0.191-33.103 c-2.178-11.476-3.386-13.136-2.105-20.665c1.282-7.53,19.072-19.01,21.636-19.49 C94.387,291.302,103.359,295.948,103.359,295.948z"/>
            <g>
              <path style="fill:none;stroke:#FFFFFF;stroke-linecap:round;stroke-linejoin:round;stroke-miterlimit:10;" d="M75.035,368.91 c0,0,4.895-5.678,7.244-6.657c2.35-0.979,18.796-0.979,18.796-0.979"/>
              <path style="fill:none;stroke:#FFFFFF;stroke-linecap:round;stroke-linejoin:round;stroke-miterlimit:10;" d="M78.56,361.666 c0,0,2.741-1.566,4.895-1.958s7.832,0,7.832,0"/>
              <path style="fill:none;stroke:#263238;stroke-linecap:round;stroke-linejoin:round;stroke-miterlimit:10;" d="M87.174,342.087 c0,0,7.44-2.545,14.293-9.202"/>
            </g>
          </g>
          <path style="fill:#FFFFFF;stroke:#263238;stroke-linecap:round;stroke-linejoin:round;stroke-miterlimit:10;" d=" M103.617,255.765c0,0,2.163,4.614,2.884,6.056c0.721,1.442,0.433,3.893,1.009,5.912c0.577,2.019,3.893,3.316,3.893,4.47 c0,1.154-1.298,3.461-1.298,3.461s-0.721,8.94-1.874,9.949c-1.153,1.009-5.912,1.298-5.912,1.298l-0.402,8.558l2.724,1.602 c0,0,0.481,9.452,0,12.817c-0.481,3.364-1.979,4.072-6.255,1.53c-4.746-2.822-10.887-10.341-11.528-11.943 c-0.641-1.602,1.331-7.228-1.552-16.456c-2.884-9.228,3.461-17.591,7.642-21.484C97.128,257.639,99.147,255.044,103.617,255.765 z"/>
          <path style="fill:#263238;stroke:#263238;stroke-linecap:round;stroke-linejoin:round;stroke-miterlimit:10;" d=" M103.617,255.765c-0.144-2.595-0.433-3.605-5.768-4.181c-5.335-0.577-16.726-1.009-21.195,6.921 c-4.47,7.93-4.47,25.233-4.47,25.233s-11.6,7.245-12.402,13.012c-0.801,5.767,3.044,11.215,9.132,13.137 c0.115,0.036,0.237,0.064,0.357,0.095c0.534-2.3,1.519-5.218,3.327-7.387c3.464-4.156,6.466-3.695,10.854-4.849 c4.457-1.173,7.183-1.453,7.831-6.463c0.653-5.04,0.46-8.141,0.078-12.736c-0.144-1.73,1.73-4.326,1.73-4.326 s4.47,1.154,7.354-6.633C103.328,259.802,103.761,258.36,103.617,255.765z"/>
          <path style="fill:#FFFFFF;stroke:#263238;stroke-linecap:round;stroke-linejoin:round;stroke-miterlimit:10;" d=" M94.965,276.384c0,0-1.442-6.633-5.191-4.037c-3.749,2.595,1.874,9.949,2.74,10.093c0.865,0.144,2.307-0.721,2.307-0.721"/>
          <polygon style="fill:#263238;stroke:#263238;stroke-linecap:round;stroke-linejoin:round;stroke-miterlimit:10;" points="&#10;&#9;&#9;&#9;&#9;&#9;102.319,286.909 97.849,286.332 102.058,287.072 &#9;&#9;&#9;&#9;"/>
          <path style="fill:#263238;" d="M107.063,269.385c0.188,0.978-0.008,1.837-0.438,1.92c-0.43,0.083-0.931-0.643-1.119-1.62 c-0.188-0.978,0.008-1.837,0.438-1.92C106.373,267.682,106.874,268.407,107.063,269.385z"/>
        </g>
        <line style="fill:#FFFFFF;stroke:#263238;stroke-linecap:round;stroke-linejoin:round;stroke-miterlimit:10;" x1="84.104" y1="315.292" x2="82.603" y2="313.421"/>
        <path style="fill:#FFFFFF;stroke:#263238;stroke-linecap:round;stroke-linejoin:round;stroke-miterlimit:10;" d="M78.741,297.53 c0,0-5.589-0.193-9.829,5.782c-4.24,5.975-2.698,13.491-1.542,16.575c1.156,3.084,10.408,21.201,11.757,23.514 c1.349,2.313,6.168,5.589,7.324,5.975c1.156,0.385,5.011-20.815,4.626-22.743c-0.385-1.927-9.251-15.419-9.251-15.419"/>
        <g>
          <path style="fill:none;stroke:#263238;stroke-linecap:round;stroke-linejoin:round;stroke-miterlimit:10;" d="M82.604,348.375 c0,0-3.631-0.419-5.051-0.22c-1.42,0.199-1.098,0.439-0.329,1.208c0.769,0.769,2.416,0.439,2.416,0.439L82.604,348.375z"/>
          <path style="fill:#FFFFFF;stroke:#263238;stroke-linecap:round;stroke-linejoin:round;stroke-miterlimit:10;" d=" M123.201,337.066c1.522,1.413,4.891,10.651-1.63,11.956c-6.521,1.304-23.693-0.435-24.346,0.217 c-0.652,0.652-6.087,4.891-7.282,5.76c-1.196,0.87-3.913,1.848-3.913,1.848s-2.5,1.956-3.152,1.522s0.652-1.522,0.652-1.522 s-2.608,1.522-3.478,1.63c-0.869,0.109-0.761-1.196-0.761-1.196c-0.435,0.326-1.304,0.217-1.304,0.217s-0.326-0.978,0.435-1.848 c0.761-0.869,4.456-4.456,4.456-4.456s-2.282,0.761-2.5,1.087c-0.217,0.326-1.522,1.195-2.282,1.848 c-0.761,0.652-1.413,0.544-1.63,0c-0.217-0.543,0.962-2.376,2.216-3.63c1.255-1.255,7.737-3.764,8.992-3.764 s11.919-3.346,11.919-3.346s19.587-6.758,20.13-6.976"/>
          <path style="fill:none;stroke:#263238;stroke-linecap:round;stroke-linejoin:round;stroke-miterlimit:10;" d="M106.282,341.117 c0,0,2.312,3.391-0.617,7.86"/>
          <polyline style="fill:none;stroke:#263238;stroke-linecap:round;stroke-linejoin:round;stroke-miterlimit:10;" points="&#10;&#9;&#9;&#9;&#9;&#9;79.291,357.282 83.373,353.865 85.569,352.108 &#9;&#9;&#9;&#9;"/>
          <path style="fill:none;stroke:#263238;stroke-linecap:round;stroke-linejoin:round;stroke-miterlimit:10;" d="M83.53,356.847 c0,0,3.247-2.653,3.576-2.763"/>
        </g>
        <path style="fill:#FFFFFF;stroke:#263238;stroke-linecap:round;stroke-linejoin:round;stroke-miterlimit:10;" d="M79.126,334.728 c0.183,3.957-1.002,9.666,4.789,13.313c2.784,1.753,6.913,3.408,9.042-1.167c2.129-4.576,3.589-45.624,3.589-45.624 s0,0,2.435-0.664c2.434-0.664,3.776-4.676,3.776-4.676s-1.121,1.356-0.014,2.463c1.106,1.107,5.533-3.541,5.754-4.869 c0.221-1.328-2.877-5.533-2.877-5.533s1.328-0.664,1.107-2.434c-0.221-1.771-6.349-0.041-6.349-0.041l-3.61,4.688 c0,0-5.311,6.861-5.754,8.631c-0.368,1.47-5.426,17.422-8.338,24.506"/>
        <line style="fill:none;stroke:#263238;stroke-linecap:round;stroke-linejoin:round;stroke-miterlimit:10;" x1="87.324" y1="310.755" x2="95.339" y2="313.837"/>
      </g>
    </g>
  </g>
</svg>